<svg width="416" height="412" viewBox="0 0 416 412" fill="none" xmlns="http://www.w3.org/2000/svg">
<path fill-rule="evenodd" clip-rule="evenodd" d="M416 0V253.312L350.115 293.999L383.698 278.948L268.605 346.319L286.346 329.782L175.2 388L265.483 314.025L93.7867 398L127.04 362L35.3067 412L102.96 346L-14 398V269.625L20.0482 241.702L-14 255.188V243.945L79.181 178.958L-2.91458 226.5L83.739 169.537L33.2054 180.375L156.994 102.675L36.31 136.5L137.557 75.855L116.195 78.1875L201.163 35.9625L181.383 51.2243L294.285 2.20425L265.405 29.0618L318.295 0H416Z" fill="#0B0637" fill-opacity="0.5"/>
<g clip-path="url(#clip0_831_11053)">
<path d="M135.718 191.403C133.828 189.309 132.312 186.906 131.234 184.298C128.965 178.913 127.274 173.302 126.191 167.559C124.563 159.612 123.489 151.56 122.978 143.463C122.876 141.13 122.892 138.794 123.027 136.463C123.137 135.62 123.329 134.79 123.599 133.984L124.081 134.061C124.081 134.397 124.081 134.761 124.081 135.062C123.781 140.075 124.305 145.045 124.857 150.016C125.668 157.956 126.984 165.836 128.796 173.608C130.27 179.684 132.121 185.621 135.592 190.906C135.659 191.064 135.702 191.232 135.718 191.403Z" fill="#002E9A"/>
<path d="M141.082 178.221C134.538 169.316 133.001 158.795 131.45 148.308C130.675 143.099 130.829 142.602 131.793 141.048C131.981 141.909 132.128 142.49 132.233 143.078C133.266 149.281 134.209 155.497 135.355 161.672C136.294 167.317 138.183 172.762 140.943 177.773C141.003 177.918 141.05 178.068 141.082 178.221Z" fill="#002E9A"/>
<path d="M214.261 302.51C214.065 301.551 214.701 301.109 215.225 300.717C217.32 299.177 219.36 297.581 221.546 296.209C232.128 289.545 242.94 283.293 254.374 278.218C258.209 276.516 262.218 275.207 266.157 273.737C266.564 273.611 266.989 273.552 267.415 273.562C248.521 280.934 231.178 291.141 214.261 302.51Z" fill="#002E9A"/>
<path d="M257.951 287.073C257.573 287.38 257.163 287.646 256.728 287.864C250.157 290.242 243.754 293.063 237.562 296.307C237.36 296.419 237.101 296.426 236.675 296.174C237.269 295.782 237.835 295.348 238.456 295.012C244.456 291.778 250.826 289.411 257.224 287.143C257.477 287.104 257.733 287.104 257.986 287.143L257.951 287.073Z" fill="#002E9A"/>
<path d="M258.013 287.115L259.494 286.247L259.662 286.695L257.979 287.073L258.013 287.115Z" fill="#002E9A"/>
<path d="M233.804 135.861C233.162 139.732 231.478 142.644 229.872 145.592C229.052 147.143 228.657 148.885 228.726 150.639C228.768 153.866 228.866 157.1 228.726 160.321C228.601 162.925 228.133 165.515 227.811 168.112C227.761 168.373 227.73 168.638 227.721 168.903C227.779 171.599 227.404 174.287 226.61 176.863C225.553 180.977 225.066 185.217 225.164 189.464C225.153 194.913 224.449 200.338 223.069 205.608C222.692 207.306 222.444 209.031 222.328 210.767C222.182 212.447 221.274 213.308 219.681 212.734C218.714 212.371 217.681 212.218 216.65 212.284C215.62 212.351 214.615 212.635 213.702 213.119C214.02 213.512 214.368 213.879 214.743 214.218C218.529 217.117 222.363 219.945 226.107 222.892C228.265 224.593 230.298 226.392 232.337 228.303C233.085 229.004 233.483 230.082 234.112 230.929C234.533 231.506 235.034 232.02 235.599 232.455C238.747 234.63 241.67 237.116 244.323 239.875C247.117 242.949 247.927 246.491 247.55 250.495C247.23 253.796 245.931 256.924 243.82 259.477C243.155 260.321 242.398 261.089 241.564 261.766C237.373 265.077 233.183 268.382 228.915 271.609C224.48 274.983 219.961 278.246 215.497 281.585C212.086 284.207 209.013 287.243 206.347 290.623C203.896 293.647 201.186 296.454 198.748 299.485C197.454 301.192 196.298 302.999 195.29 304.89C194.592 306.087 193.998 307.354 194.878 308.824C195.061 309.403 195.061 310.024 194.878 310.602C194.708 311.937 194.437 313.257 194.068 314.551C193.46 316.441 193.914 318.114 194.767 319.78C195.528 321.278 196.282 322.776 196.995 324.302C197.391 324.937 197.63 325.657 197.693 326.403C197.588 328.027 198.538 329.028 199.446 330.085C200.494 331.31 201.605 332.486 202.638 333.725C204.287 335.706 205.369 337.926 204.734 340.579C204.364 342.105 203.833 343.449 202.24 344.261C201.416 344.674 200.941 345.745 200.243 346.452C199.363 347.348 198.147 347.439 197.414 346.536C197.016 346.046 197.016 345.227 196.771 344.324L193.132 343.435C192.909 343.729 192.643 344.135 192.329 344.457C191.735 345.108 191.044 345.472 190.234 344.814C190.052 344.713 189.898 344.569 189.785 344.395C189.672 344.221 189.603 344.021 189.584 343.814C189.565 343.607 189.598 343.398 189.678 343.207C189.758 343.015 189.884 342.846 190.045 342.714C190.148 342.516 190.221 342.304 190.261 342.084L186.036 339.508C183.675 340.908 183.368 340.908 182.418 339.893C181.468 338.878 181.489 338.556 182.494 336.946L179.868 333.312C178.653 333.543 177.34 334.397 176.453 332.612C175.719 331.121 176.99 330.764 177.717 329.917L174.741 326.067C173.666 326.361 172.681 327.348 171.64 326.067C171.005 325.276 171.354 324.736 171.913 323.966L168.735 321.866C166.485 323.434 166.073 323.511 165.242 322.566C164.544 321.712 164.628 321.278 165.941 319.808L165.354 319.108C162.693 320.41 160.136 321.558 157.671 322.902C155.94 323.78 154.329 324.879 152.879 326.172C150.702 328.264 148.7 330.533 146.893 332.955C146.117 334.194 145.67 335.611 145.594 337.072C145.378 339.123 145.538 341.216 145.517 343.295C145.517 344.695 145.517 346.095 145.427 347.495C145.251 350.258 145.742 353.022 146.858 355.553C147.739 357.616 147.829 359.932 147.11 362.057C146.307 364.577 144.442 365.907 142.004 366.369C141.024 366.525 140.092 366.903 139.28 367.475C138.982 367.749 138.615 367.936 138.218 368.014C137.645 368.051 137.073 367.93 136.563 367.664C135.955 367.286 136.039 366.649 136.43 366.068C136.517 365.871 136.581 365.664 136.619 365.452L135.019 364.472C134.013 365.011 132.994 365.669 131.96 364.472C130.689 363.072 132.281 362.183 132.603 360.972C132.337 360.433 132.023 359.844 131.757 359.235C131.623 358.858 131.389 358.523 131.08 358.268C130.772 358.013 130.4 357.846 130.004 357.786C129.378 357.614 128.834 357.224 128.468 356.687C127.769 355.672 127.958 355.238 129.166 354.538C129.28 354.467 129.389 354.39 129.494 354.307C129.572 354.204 129.64 354.094 129.697 353.978C129.473 353.191 129.181 352.425 128.824 351.689C128.522 351.201 128.056 350.839 127.511 350.667C126.812 350.478 126.191 350.436 126.114 349.561C126.058 349.366 126.043 349.161 126.07 348.96C126.096 348.759 126.162 348.566 126.266 348.391C126.369 348.217 126.507 348.066 126.67 347.947C126.834 347.827 127.02 347.743 127.217 347.698C127.523 347.567 127.818 347.41 128.097 347.229L126.617 344.429C125.185 344.723 123.823 345.367 122.978 343.673C122.384 342.525 123.04 341.93 123.955 341.195C123.369 340.495 122.845 339.795 122.293 339.165C122.103 338.885 121.834 338.669 121.52 338.544C121.206 338.42 120.863 338.392 120.533 338.465C120.341 338.532 120.137 338.56 119.934 338.547C119.731 338.535 119.533 338.483 119.35 338.393C119.168 338.303 119.005 338.177 118.871 338.024C118.737 337.871 118.635 337.692 118.57 337.499C118.474 337.3 118.421 337.083 118.415 336.863C118.409 336.642 118.449 336.423 118.534 336.219C118.618 336.015 118.745 335.832 118.905 335.681C119.066 335.53 119.256 335.414 119.464 335.342C119.646 335.251 119.814 335.146 120.079 334.999C119.639 334.194 119.297 333.599 118.954 332.899C117.823 332.899 116.67 333.13 116.244 331.702C115.902 330.547 116.049 330.085 117.027 329.287C118.022 328.501 118.957 327.64 119.821 326.711C121.657 324.611 123.481 322.51 126.107 321.481C127.488 320.993 128.903 320.605 130.34 320.319C131.178 320.123 132.037 320.039 133.064 319.878C132.945 319.178 132.84 318.653 132.749 318.086C132.643 317.521 132.676 316.938 132.843 316.388C133.011 315.839 133.31 315.338 133.713 314.929C134.265 314.355 135.026 313.914 135.669 314.411C136.162 314.914 136.462 315.576 136.514 316.28C136.46 317.001 136.295 317.709 136.025 318.38C141.333 315.524 145.706 311.988 148.898 307.102C149.743 305.807 150.56 304.498 151.287 303.133C154.234 297.616 158.677 293.64 163.985 290.532C167.27 288.573 170.807 287.072 174.497 286.072C175.272 285.862 176.02 285.561 176.893 285.26C177.451 283.02 177.291 280.738 177.193 278.477C177.011 274.052 176.215 269.656 176.669 265.176C176.668 264.032 176.453 262.899 176.034 261.836C174.816 257.847 174.261 253.685 174.392 249.515C174.56 245.476 173.1 241.724 171.92 237.943C171.658 237.417 171.241 236.985 170.725 236.704C165.34 233.092 161.477 228.142 158.523 222.479C156.316 218.279 156.232 213.658 156.944 209.073C157.624 204.809 159.228 200.746 161.645 197.172C162.351 196.173 162.644 194.938 162.462 193.728C162.071 191.074 161.764 188.393 161.142 185.782C160.547 183.282 160.735 180.659 161.68 178.27C162.434 176.261 163.266 174.273 164.034 172.264C165.201 169.223 165.277 165.869 164.25 162.778C163.887 161.63 163.552 160.468 163.133 159.334C161.545 154.864 161.403 150.006 162.728 145.451C163.084 144.156 163.363 142.847 163.726 141.552C164.782 137.702 164.738 133.632 163.601 129.805C163.4 129.305 163.266 128.78 163.203 128.244C163.245 125.395 161.142 124.324 159.11 123.204C158.029 122.667 156.807 122.483 155.617 122.679C153.221 122.938 150.819 123.141 148.409 123.232C147.356 123.33 146.301 123.07 145.414 122.494C144.526 121.917 143.859 121.057 143.52 120.053C143.302 119.595 142.945 119.218 142.5 118.975C136.9 115.804 131.103 112.998 125.143 110.575C121.616 109.174 120.107 105.982 121.294 102.349C122.106 100.147 123.116 98.0244 124.312 96.0064C128.576 88.0593 133.797 80.6674 139.86 73.9965C144.63 68.7951 149.436 63.6357 153.689 57.9862C154.627 56.755 155.729 55.6595 156.965 54.7309C159.645 52.6941 161.932 50.1841 163.713 47.3243C165.012 45.2242 166.995 44.9301 169.119 44.9231C169.647 44.9489 170.146 45.174 170.516 45.5532C173.184 48.4934 175.859 51.4547 176.348 55.662C176.461 56.3896 176.472 57.1294 176.383 57.8602C176.173 59.1763 175.426 60.2054 174.022 60.1984C171.123 60.1984 168.769 61.3955 166.423 62.9216C165.377 63.5203 164.209 63.87 163.007 63.9437C162.34 63.9801 161.688 64.1588 161.096 64.4679C160.503 64.7769 159.983 65.2092 159.571 65.7359C156.298 69.6621 153.497 73.9595 151.224 78.5399C148.73 83.7484 146.404 89.0408 144.016 94.2982C143.771 94.8443 143.597 95.4113 143.317 96.0904C145.706 96.6504 147.899 97.1825 150.246 96.2654C152.284 95.5092 154.509 95.4186 156.602 96.0064C160.211 96.9413 164.039 96.4867 167.331 94.7323C169.978 93.4302 172.758 93.4372 175.566 93.6472C176.236 93.7029 176.888 93.8984 177.479 94.2212C177.834 94.4079 178.223 94.5181 178.623 94.5446C179.022 94.5711 179.423 94.5134 179.798 94.3752C180.678 94.0862 181.591 93.9121 182.515 93.8572C184.611 93.8572 186.65 93.8152 188.613 92.2681C188.92 91.127 188.431 89.8529 187.698 88.6068C186.863 87.3894 186.15 86.0927 185.568 84.7354C185.036 83.1063 184.319 81.5442 183.43 80.0801C183.037 79.2992 182.761 78.464 182.613 77.6019C182.201 76.0477 181.789 74.4936 181.461 72.9185C181.28 72.0668 181.186 71.1989 181.181 70.3282C181.181 68.3121 181.335 66.2889 181.23 64.2797C180.846 57.3842 186.483 51.5527 192.853 50.7756C194.718 50.5921 196.546 50.137 198.28 49.4245C199.281 49.0635 200.355 48.953 201.409 49.1025C202.918 49.2635 204.021 48.9065 204.797 47.5414C205.177 46.9933 205.604 46.4803 206.075 46.0082C207.164 47.4083 206.466 48.6894 206.585 50.2086L211.278 47.2123C211.635 49.5155 210.468 51.1186 209.714 52.9668C211.285 53.4218 212.599 52.1267 214.205 52.2667C214.352 53.7999 212.955 54.4299 212.41 55.718L216.196 58.8193L213.102 59.5193C213.968 61.7875 213.73 64.2657 215.351 66.1909C215.658 66.6381 215.826 67.167 215.833 67.71C215.831 68.0684 215.916 68.4219 216.078 68.7409C216.241 69.06 216.478 69.3354 216.768 69.5442C217.851 70.3773 217.607 71.6934 217.67 72.9115C217.886 77.1118 216.831 81.1651 216.196 85.2675C216 86.5276 215.777 87.7877 215.553 89.0408C215.169 91.141 214.659 93.2411 212.822 94.7743C214.339 95.9731 216.194 96.6616 218.124 96.7414C219.192 96.7414 220.268 96.7414 221.343 96.7414C223.641 96.7094 225.884 97.4487 227.714 98.8416C230.75 101.393 234.144 103.485 237.786 105.051C240.132 106.01 241.872 107.851 243.527 109.714C244.721 111.072 245.93 112.416 246.929 113.543" fill="black"/>
<path d="M245.616 113.459C248.41 113.06 250.994 112.346 253.557 112.395C260.116 112.514 266.13 114.271 270.782 119.332C272.74 121.379 274.197 123.855 275.035 126.564C275.484 128.123 276.404 129.505 277.669 130.519C279.478 132.017 281.364 133.425 283.166 134.93C284.122 135.663 284.989 136.507 285.75 137.443C286.523 138.354 286.931 139.52 286.898 140.715C286.864 141.911 286.391 143.052 285.568 143.918C283.253 146.345 280.754 148.59 278.095 150.632C276.583 151.632 274.871 152.287 273.08 152.55C269.462 153.25 265.788 154.069 262.149 153.999C258.984 153.943 255.897 154.489 252.754 154.419C243.884 154.216 238.086 149.589 234.433 141.867C233.911 140.56 233.481 139.217 233.148 137.849C232.973 137.296 232.827 136.736 232.526 135.686" fill="#1A146A"/>
<path d="M155.974 322.37C155.529 322.478 155.094 322.623 154.674 322.804C150.016 325.247 146.467 328.965 143.143 332.941C143.094 332.997 143.143 333.172 143.219 333.487L145.196 333.641C148.095 329.21 151.315 325.317 155.827 322.678C155.904 322.636 155.904 322.454 155.939 322.335C158.935 321.712 161.526 320.235 163.971 318.485C160.8 318.779 158.586 321.005 155.974 322.37Z" fill="#AED5EF"/>
<path d="M139.846 321.145C142.521 319.528 145.252 317.988 147.865 316.245C150.063 314.691 151.957 312.745 153.452 310.504C155.178 308.117 157.008 305.8 158.831 303.504C159.948 302.103 161.156 300.703 162.323 299.303C162.951 298.635 163.38 297.803 163.559 296.902C160.574 298.517 158.105 300.943 156.435 303.903C154.877 306.493 153.396 309.153 151.126 311.197C147.892 314.123 144.582 316.959 141.306 319.836C140.824 320.27 140.363 320.732 139.909 321.18L134.901 323.805L135.432 325.842L139.846 321.145Z" fill="#AED5EF"/>
<path d="M184.213 303.328L183.556 304.582L185.219 305.555C185.854 303.455 187.524 302.362 188.928 301.053C193.754 296.545 198.182 291.68 201.633 286.037C205.237 280.136 208.569 274.073 212.808 268.578C213.092 268.087 213.326 267.568 213.507 267.03C209.511 268.977 207.283 272.022 205.502 275.48C202.548 281.228 199.356 286.814 195.025 291.687C191.917 295.187 188.823 298.743 185.687 302.243C185.209 302.679 184.69 303.066 184.136 303.398C186.162 301.004 188.145 298.568 190.241 296.223C194.718 291.203 199.076 286.107 202.24 280.122C203.526 277.685 204.825 275.221 206.201 272.869C207.617 270.404 209.68 268.375 212.166 267.002C212.844 266.693 213.544 266.435 214.261 266.232C214.296 267.899 213.465 268.809 212.773 269.733C209.812 273.645 207.13 277.762 204.748 282.054C200.955 289.194 195.849 295.306 190.024 300.85C189.004 301.823 187.929 302.74 186.958 303.763C185.561 305.219 185.763 305.863 187.656 306.668C187.884 306.731 188.118 306.769 188.355 306.78C188.934 306.227 189.605 305.681 190.178 305.03C194.35 300.379 198.185 295.436 201.654 290.237C203.167 287.856 204.799 285.552 206.543 283.335C209.002 280.325 211.586 277.398 214.289 274.605C215.525 273.331 217.174 272.449 218.675 271.448C219.157 271.126 219.793 270.881 220.415 271.882C219.772 272.812 219.073 273.7 218.319 274.542C211.847 280.9 205.84 287.717 200.348 294.942C199.921 295.502 199.509 296.076 199.09 296.636C199.223 296.688 199.369 296.697 199.508 296.663C199.646 296.63 199.771 296.554 199.866 296.447C201.381 294.648 202.953 292.891 204.378 291.029C207.635 286.744 211.51 282.969 215.875 279.828C220.135 276.789 224.333 273.66 228.552 270.559C229.173 270.097 229.76 269.579 230.577 268.914C226.556 267.947 222.772 266.17 219.458 263.691C216.284 261.208 213.464 258.302 211.076 255.052C210.817 255.223 210.567 255.408 210.329 255.606C207.175 258.722 203.8 261.605 200.229 264.23C199.571 264.697 198.987 265.262 198.497 265.903C197.695 266.972 196.981 268.102 196.359 269.285C194.201 273.527 192.476 278.049 189.891 282.012C186.972 286.492 183.312 290.482 179.973 294.683C179.058 295.824 178.122 296.944 177.179 298.092C177.675 298.939 178.059 299.597 178.674 300.661C179.303 299.877 179.673 299.317 180.134 298.841C181.81 297.098 183.458 295.341 185.212 293.668C188.758 290.269 191.697 286.287 193.901 281.893C196.038 277.692 198.378 273.625 200.753 269.572C201.553 268.339 202.514 267.218 203.609 266.239C203.925 265.874 204.351 265.622 204.823 265.522C205.294 265.422 205.786 265.48 206.222 265.686C206.529 266.617 206.424 267.381 205.523 267.899C205.635 267.346 205.74 266.799 205.949 265.798C205.118 266.12 204.327 266.541 203.595 267.052C202.755 267.818 202.031 268.702 201.444 269.677C199.153 273.618 196.792 277.524 194.767 281.578C192.256 286.713 188.796 291.324 184.569 295.166C182.606 296.944 180.818 298.925 178.981 300.766L179.98 302.215C181.377 300.766 182.53 299.415 183.822 298.337C187.393 295.381 190.471 291.871 192.937 287.941C195.109 284.322 197.128 280.612 199.118 276.887C200.571 274.178 201.968 271.455 204.385 269.432C204.015 270.048 203.644 270.671 203.267 271.28C202.143 273.1 200.962 274.892 199.907 276.747C199.146 278.084 198.58 279.548 197.868 280.899C194.152 287.962 189.724 294.466 183.403 299.499C182.988 299.839 182.593 300.204 182.222 300.591C180.755 302.054 180.881 302.768 182.809 303.938L184.213 303.328Z" fill="#AED5EF"/>
<path d="M220.931 205.643H221.42C221.445 205.33 221.445 205.017 221.42 204.704C220.994 201.904 220.645 199.104 220.093 196.36C219.513 193.872 219.278 191.316 219.395 188.764C219.52 187.021 219.744 185.264 219.884 183.542C220.261 178.872 219.597 174.399 217.09 170.36C215.462 167.734 213.779 165.13 211.97 162.659C208.017 157.227 203.958 151.878 199.963 146.488C197.798 143.561 195.535 140.733 192.615 138.507C190.96 137.247 189.311 135.966 187.726 134.65C184.507 131.961 182.14 128.389 180.916 124.373C180.592 123.284 180.469 122.145 180.553 121.012C180.622 119.801 181.537 119.409 182.557 120.067C183.075 120.479 183.543 120.949 183.954 121.467C185.343 123.1 186.819 124.657 188.375 126.13C190.888 128.266 192.908 130.921 194.299 133.915C195.192 135.641 196.217 137.296 197.365 138.864C198.685 140.817 200.089 142.707 200.599 145.08C200.701 145.467 200.884 145.828 201.137 146.138C203.437 149.283 205.744 152.419 208.058 155.546C210.978 159.488 213.981 163.366 216.796 167.377C220.271 172.166 221.756 178.119 220.938 183.983C220.722 185.649 220.645 187.329 220.484 189.002C220.065 193.553 221.672 197.802 222.272 202.436C222.531 202.044 222.705 201.897 222.726 201.736C223.062 198.397 223.655 195.051 223.648 191.711C223.551 185.924 224.232 180.151 225.674 174.546C226.631 171.145 226.384 167.516 224.975 164.276C223.563 160.998 222.699 157.51 222.419 153.95C222.303 151.76 221.685 149.626 220.611 147.715C219.538 145.804 218.039 144.167 216.231 142.931C214.129 141.37 212.131 139.672 210.252 137.849C209.37 136.932 208.592 135.92 207.933 134.832C207.563 134.286 207.199 133.586 207.807 132.983C208.415 132.381 209.043 132.934 209.595 133.264C209.928 133.492 210.247 133.74 210.552 134.006L218.179 139.935C220.161 141.328 221.842 143.107 223.124 145.165C224.459 147.503 224.85 150.065 225.283 152.676C225.862 156.106 226.379 159.544 226.924 162.981H227.35C227.406 160.797 227.518 158.606 227.497 156.421C227.497 154.601 227.322 152.788 227.224 150.975C227.095 149.085 227.515 147.198 228.433 145.542C230.431 142.265 231.816 138.65 232.519 134.874C232.565 134.609 232.655 134.353 232.784 134.118C234.258 131.415 234.132 128.517 233.657 125.654C233.275 123.125 233.368 120.546 233.93 118.051C234.859 113.634 234.908 109.258 233.483 105.177C231.799 103.959 230.193 102.965 228.782 101.733C226.093 99.3807 223.152 97.9875 219.464 98.2326C217.091 98.467 214.716 97.8082 212.801 96.3844C211.453 95.3203 210.182 95.4323 208.652 95.8454C208.67 96.1386 208.717 96.4294 208.792 96.7134C210.335 100.795 209.399 104.365 206.033 107.13C205.774 107.347 205.509 107.55 205.258 107.774C204.644 108.357 203.872 108.745 203.039 108.888C202.206 109.031 201.35 108.924 200.578 108.579C199.397 108.101 198.189 107.695 196.96 107.361C193.797 106.587 191.048 104.631 189.276 101.894C187.796 99.7937 186.441 97.5395 184.848 95.0683C183.409 95.3203 181.684 95.5303 180.008 95.9504C178.771 96.2654 177.696 96.3984 176.585 95.5653C176.215 95.2693 175.77 95.0824 175.3 95.0255C174.83 94.9686 174.354 95.044 173.924 95.2433C174.224 95.6213 174.364 95.8453 174.546 96.0274C175.554 96.9337 176.278 98.1145 176.629 99.4258C176.98 100.737 176.943 102.122 176.522 103.413C175.711 106.397 175.226 109.46 175.077 112.549C174.86 115.727 174.252 118.618 172.248 121.348C169.188 125.549 168.7 130.4 169.887 135.413C170.921 139.795 171.987 144.168 173.086 148.532C174.818 155.399 175 162.211 172.478 168.952C171.85 170.651 171.263 172.366 170.718 174.098C170.027 176.144 169.92 178.344 170.411 180.447C171.011 182.926 171.458 185.446 171.933 187.952C171.982 188.467 171.982 188.985 171.933 189.499C171.472 189.065 171.147 188.506 170.997 187.889C170.376 185.481 169.824 183.059 169.188 180.657C168.572 178.299 168.674 175.81 169.482 173.51C169.971 172.047 170.376 170.549 170.949 169.12C173.39 162.997 173.845 156.259 172.248 149.862C171.214 145.409 170.089 140.985 169.077 136.561C167.924 131.506 167.868 126.55 170.648 121.909C170.697 121.832 170.613 121.671 170.571 121.391C168.05 123.071 166.017 125.451 162.755 125.794C163.126 127.075 163.37 128.125 163.726 129.126C165.411 133.707 165.575 138.711 164.194 143.393C163.978 144.17 163.796 144.954 163.58 145.732C162.141 150.465 162.28 155.541 163.978 160.188C164.334 161.126 164.565 162.113 164.872 163.079C165.945 166.371 165.832 169.936 164.551 173.153C163.852 174.903 163.091 176.653 162.497 178.41C161.976 179.932 161.588 181.497 161.338 183.087C161.17 184.256 161.261 185.467 162.399 186.356C165.144 188.456 168.057 190.178 171.591 190.619C175.231 191.054 178.584 192.818 181.007 195.576C183.161 197.925 186.024 199.501 189.158 200.063C195.083 201.334 200.637 203.954 205.39 207.722C207.192 209.122 209.183 210.242 211.118 211.446C211.649 211.807 212.262 212.03 212.9 212.096C213.539 212.162 214.184 212.069 214.778 211.824C216.037 211.313 217.444 211.313 218.703 211.824C219.427 212.028 220.165 212.18 220.91 212.279C220.785 210.97 220.757 209.983 220.596 209.017C219.849 204.585 219.15 200.133 218.277 195.716C217.833 193.002 217.131 190.336 216.182 187.756C213.174 180.535 208.76 173.988 203.197 168.497C201.8 167.097 200.138 165.837 198.936 164.255C195.332 159.488 191.847 154.636 188.424 149.736C186.795 147.268 184.895 144.99 182.76 142.945C181.321 141.636 179.868 140.334 178.45 139.004C176.942 137.749 175.813 136.098 175.188 134.237C175.155 133.792 175.179 133.345 175.258 132.906C175.845 133.362 176.222 133.606 176.536 133.908C179.428 136.708 182.264 139.571 185.218 142.308C189.71 146.446 193.691 150.94 196.045 156.673C197.567 160.377 199.488 163.8 202.575 166.474C202.969 166.84 203.345 167.226 203.7 167.629C207.714 171.699 211.231 176.232 214.177 181.134C217.33 186.152 219.235 191.857 219.73 197.767C219.918 200.378 220.498 203.003 220.931 205.643Z" fill="#CA9A2C"/>
<path d="M142.703 97.4624C142.514 98.4495 142.409 99.1776 142.235 99.8916C141.941 101.068 141.355 101.656 140.747 101.467C140.139 101.278 139.965 100.459 140.475 99.3666C140.985 98.2745 141.606 97.3854 142.088 96.3563C145.238 89.6008 148.332 82.8102 151.517 76.0546C153.424 72.0153 156.232 68.564 158.991 65.0917C159.379 64.6332 159.855 64.2588 160.392 63.9916C160.929 63.7243 161.515 63.5698 162.113 63.5376C163.562 63.3083 164.972 62.8795 166.304 62.2635C168.078 61.4502 169.572 60.1302 170.6 58.4692C171.48 57.1531 171.864 57.1881 173.394 58.2102L171.235 59.7363C171.921 59.909 172.635 59.9329 173.331 59.8063C174.728 59.5542 175.175 59.0642 175.273 57.6641C175.28 57.1267 175.236 56.5897 175.14 56.061C174.721 52.8337 172.786 50.3975 170.865 47.9753C169.238 45.9311 168.441 45.6861 166.018 46.6312C165.241 46.9941 164.583 47.5692 164.118 48.2903C162.252 51.0045 160.019 53.4455 157.482 55.5429C155.772 57.0388 154.193 58.6782 152.761 60.4433C150.435 63.1386 148.353 66.0438 145.895 68.62C138.763 76.0686 132.128 83.9023 126.799 92.758C124.853 95.8914 123.146 99.1677 121.693 102.559C120.296 106.01 121.867 108.971 125.29 110.372C125.66 110.526 126.044 110.652 126.414 110.813C130.032 112.409 133.741 113.816 137.234 115.657C140.964 117.617 144.533 119.857 148.654 120.963C150.142 119.892 150.693 119.227 151.175 117.043C152.086 112.762 152.338 108.366 151.923 104.008C151.664 100.991 150.093 98.6595 146.887 97.9595C145.553 97.6934 144.211 97.6445 142.703 97.4624Z" fill="#F7C5B4"/>
<path d="M215.05 70.6782L213.5 66.2049C213.178 65.2172 212.944 64.2028 212.801 63.1736C212.696 60.8984 211.754 59.3093 209.609 58.4202C209.036 58.1822 208.603 57.8952 207.933 58.1402C206.202 58.6901 204.359 58.7818 202.583 58.4062C201.732 58.3093 200.871 58.4422 200.089 58.7912C198.441 59.4913 196.876 60.4504 195.263 61.2695C190.227 63.8247 188.941 66.9609 190.737 72.3514C190.932 72.9254 191.163 73.4785 191.365 74.0525C191.528 74.4918 191.663 74.9407 191.77 75.3966C191.935 75.8835 191.915 76.4138 191.716 76.8873C191.516 77.3608 191.151 77.7446 190.688 77.9658C189.835 78.3649 189.179 78.1129 188.355 76.9858C187.531 75.8587 186.958 74.8856 186.169 73.8425C185.281 72.6944 184.457 72.5894 183.5 73.6465C182.976 74.2181 182.691 74.9701 182.704 75.7467C182.903 77.2086 183.296 78.6376 183.871 79.996C184.253 80.7713 184.849 81.4202 185.589 81.8652C187.097 82.8312 188.718 83.6223 190.31 84.4624C190.45 84.5394 190.674 84.4624 191.009 84.4624V81.8372C191.359 82.2619 191.599 82.767 191.707 83.3073C191.779 83.6359 191.804 83.9727 191.784 84.3084C191.742 85.4775 191.149 85.8625 190.059 85.3725C189.361 85.0644 188.725 84.6304 187.964 84.2034C188.11 85.0569 188.189 85.9206 188.201 86.7866C188.152 88.1211 188.405 89.4495 188.941 90.6719C189.245 91.556 189.317 92.5032 189.151 93.4231C189.004 94.0464 189.005 94.6954 189.151 95.3186C189.298 95.9419 189.587 96.5225 189.996 97.0144C191.649 98.9513 193.365 100.837 195.144 102.671C195.69 103.22 196.345 103.648 197.067 103.927C197.79 104.205 198.562 104.328 199.335 104.288C200.676 104.288 202.017 104.288 203.358 104.288C205.223 104.288 205.621 104.001 205.747 102.104C205.825 100.287 206.361 98.5193 207.304 96.9654C207.516 96.5506 207.689 96.1171 207.821 95.6703C204.916 94.8863 202.08 94.1302 199.244 93.3531C197.284 92.8547 195.46 91.9217 193.908 90.6229C193.252 90.1274 192.711 89.4952 192.323 88.7701C191.935 88.0449 191.708 87.244 191.658 86.4226C191.97 86.6624 192.226 86.9684 192.406 87.3186C193.67 89.9298 195.898 91.3369 198.524 92.219C200.871 93.0171 203.267 93.6822 205.677 94.2632C207.052 94.5769 208.457 94.7435 209.868 94.7602C212.215 94.8022 213.248 93.9692 213.989 91.701C214.174 91.1262 214.319 90.539 214.422 89.9438C215.12 86.1775 215.707 82.3972 216.517 78.6519C217.09 75.7117 215.923 73.2755 215.05 70.6782ZM214.806 70.7202L213.465 70.9793C214.401 73.3805 214.065 74.5216 212.48 74.4376C213.933 73.0374 213.961 72.5054 212.403 71.1193L214.806 70.7202ZM211.244 69.4741V69.4251C211.243 69.4414 211.243 69.4578 211.244 69.4741Z" fill="#F7C5B4"/>
<path d="M211.244 69.4741V69.425C211.243 69.4414 211.243 69.4577 211.244 69.4741Z" fill="#F7C5B4"/>
<path d="M161.226 199.314C160.528 200.931 159.829 202.422 159.235 203.99C157.014 210.291 156.309 216.654 159.396 222.794C161.77 227.575 165.212 231.743 169.454 234.975C172.911 237.593 176.921 239.175 180.944 240.673C184.546 241.98 187.908 243.873 190.897 246.274C194.693 249.374 198.877 251.963 203.344 253.974C204.119 254.318 204.804 254.605 205.593 254.044C205.988 253.784 206.294 253.407 206.467 252.966C206.641 252.525 206.675 252.041 206.564 251.58C206.368 250.46 205.9 249.305 206.026 248.213C206.354 245.273 204.552 244.055 202.331 243.054C202.087 242.949 201.849 242.816 201.633 242.711C198.918 241.517 196.479 239.775 194.466 237.593C191.594 234.483 188.257 231.838 184.576 229.752C180.799 227.668 177.485 224.836 174.832 221.429C173.069 219.138 171.017 217.086 168.728 215.324C167.635 214.433 166.627 213.442 165.717 212.363C164.041 210.445 162.77 208.212 162.923 205.636C163.132 203.536 162.641 201.426 161.526 199.636C161.436 199.52 161.335 199.413 161.226 199.314Z" fill="#002E9A"/>
<path d="M164.062 202.723C163.706 205.348 163.943 207.869 165.571 210.004C166.755 211.628 168.126 213.106 169.657 214.407C172.164 216.429 174.428 218.736 176.404 221.282C178.455 223.952 181.011 226.19 183.927 227.869C188.568 230.438 192.805 233.682 196.499 237.495C197.896 238.979 199.768 240.029 201.493 241.177C202.771 242.031 204.154 242.724 205.502 243.466C205.838 243.648 206.257 243.915 206.571 243.845C208.129 243.494 209.267 244.398 210.475 245.07C211.062 245.392 211.565 245.868 212.166 246.155C213.102 246.617 213.793 246.155 213.674 245.14C213.304 242.003 212.843 238.881 212.473 235.752C212.465 235.419 212.35 235.097 212.145 234.834C211.94 234.572 211.656 234.383 211.335 234.296C207.612 232.98 204.888 230.312 202.171 227.589C199.041 224.453 195.884 221.352 192.546 218.439C190.283 216.458 187.726 214.82 185.302 213.021C181.845 210.452 178.932 207.462 177.654 203.22C177.538 202.913 177.393 202.618 177.221 202.338C172.856 200.966 168.546 201.617 164.062 202.723Z" fill="#002E9A"/>
<path d="M178.716 202.695C179.753 205.692 181.633 208.325 184.129 210.277C186.657 212.265 189.263 214.162 191.812 216.101C196.059 219.314 199.628 223.249 203.337 227.036C205.502 229.248 207.723 231.44 210.671 232.574C214.506 234.044 218.27 235.584 221.015 238.916C224.71 235.955 229.097 234.401 232.743 231.32C232.274 230.634 231.743 229.991 231.157 229.402C228.58 227.26 226.023 225.09 223.32 223.102C219.528 220.302 215.637 217.669 212.333 214.323C211.851 213.679 211.298 213.092 210.685 212.573C208.24 211.103 206.145 209.115 203.253 208.296C200.229 207.434 197.344 206.006 194.173 205.789C189.564 205.409 185.014 204.505 180.609 203.094C180.064 202.947 179.491 202.863 178.716 202.695Z" fill="#002E9A"/>
<path d="M206.878 244.783C206.627 247.177 207.381 249.228 207.765 251.321C207.828 251.657 208.534 252.084 208.96 252.105C210.552 252.21 212.166 252.399 213.716 251.706C215.903 250.733 217.907 251.202 219.772 252.581C220.68 253.281 221.462 254.108 222.322 254.85C223.684 256.033 224.927 257.454 226.471 258.35C229.788 260.226 233.267 261.808 236.633 263.495C241.069 261.311 244.107 257.965 245.476 253.253C246.845 248.542 246.419 244.286 242.682 240.785C239.658 237.943 236.536 235.185 233.448 232.385C231.88 233.527 230.247 234.579 228.559 235.535C223.795 237.908 219.891 241.366 216.133 245.042C215.351 245.798 214.583 246.526 214.548 247.73C214.548 247.947 214.345 248.171 214.191 248.43C214.017 248.024 213.891 247.73 213.744 247.366C213.165 247.494 212.562 247.48 211.989 247.324C211.417 247.168 210.89 246.875 210.455 246.47C209.481 245.528 208.223 244.935 206.878 244.783Z" fill="#F7C5B4"/>
<path d="M149.275 97.6793C152.139 99.8985 153.068 102.72 153.054 105.856C153.054 108.74 152.914 111.631 152.642 114.502C152.342 117.582 151.469 120.452 148.626 122.251C148.577 122.251 148.626 122.468 148.675 122.797C150.379 122.636 152.104 122.559 153.794 122.3C156.204 121.929 158.453 122.034 160.465 123.637C162.246 125.038 164.097 124.786 165.871 123.637C166.653 123.119 167.331 122.454 168.099 121.915C168.984 121.204 169.939 120.585 170.949 120.067C171.7 119.766 172.352 119.259 172.829 118.604C173.305 117.949 173.588 117.173 173.645 116.364C173.827 114.964 174.001 113.564 174.106 112.164C174.206 109.276 174.661 106.412 175.461 103.637C176.474 100.543 175.664 97.9803 173.366 95.7751C173.14 95.5379 172.869 95.3487 172.569 95.2188C172.269 95.0889 171.946 95.0209 171.619 95.019C170.006 95.0598 168.425 95.4794 167.003 96.2441C163.605 97.932 159.708 98.3107 156.05 97.3082C153.812 96.691 151.434 96.8212 149.275 97.6793Z" fill="#CA9A2C"/>
<path d="M204.943 255.809C200.403 254.114 196.066 252.14 192.329 249.137C188.222 245.84 183.912 242.977 178.904 241.219C177.263 240.645 175.705 239.819 174.113 239.119C173.596 238.895 173.072 238.699 172.346 238.419C172.428 238.824 172.533 239.223 172.66 239.616C174.334 243.801 175.14 248.284 175.028 252.791C174.965 256.684 176.327 260.366 177.207 264.342C177.546 264.095 177.86 263.813 178.143 263.502C179.868 260.961 182.397 260.779 185.512 262.102C186.723 262.66 187.861 263.366 188.9 264.202C190.933 265.808 193.145 267.17 195.493 268.263C197.049 265.661 199.148 263.428 201.647 261.717C202.624 261.017 203.442 260.121 204.385 259.365C205.733 258.315 205.858 257.111 204.943 255.809Z" fill="#002E9A"/>
<path d="M170.411 288.578C168.825 289.397 167.512 290.041 166.22 290.749C161.778 293.192 157.594 295.985 154.556 300.15C153.233 302.01 152.027 303.951 150.944 305.961C147.452 312.261 142.36 316.721 135.99 319.85C135.522 320.074 135.082 320.354 134.593 320.648C134.684 321.418 134.761 322.104 134.873 323.091C135.915 322.598 136.921 322.032 137.883 321.397C140.756 319.194 143.587 316.94 146.376 314.635C150.274 311.532 153.529 307.696 155.96 303.343C157.449 300.607 159.657 298.331 162.344 296.762C163.042 296.328 163.796 295.754 164.886 296.279C164.813 296.713 164.686 297.136 164.509 297.539C163.926 298.512 163.282 299.448 162.581 300.339C159.326 304.351 155.771 308.103 152.942 312.471C151.847 314.003 150.489 315.328 148.933 316.385C146.502 318.17 143.834 319.626 141.382 321.376C139.785 322.587 138.264 323.896 136.828 325.296C136.381 325.709 135.871 326.305 136.612 327.145C137.345 326.711 138.1 326.304 138.812 325.821C141.536 323.98 144.211 322.069 146.97 320.277C152.574 316.681 157.59 312.24 161.841 307.109C162.777 305.975 163.747 304.848 164.781 303.798C165.322 303.347 165.907 302.953 166.527 302.621C166.771 302.961 166.896 303.372 166.882 303.79C166.868 304.208 166.717 304.609 166.451 304.932C165.97 305.738 165.408 306.494 164.774 307.186C162.211 309.748 159.682 312.352 156.972 314.761C151.461 319.661 146.069 324.736 139.748 328.643C139.469 328.818 139.112 329.014 138.994 329.28C138.819 329.672 138.623 330.267 138.805 330.54C138.965 330.687 139.161 330.789 139.373 330.837C139.585 330.885 139.806 330.876 140.013 330.813C140.783 330.414 141.49 329.902 142.109 329.294C145.666 325.813 149.705 322.863 154.102 320.536C157.084 318.926 160.067 317.302 162.274 314.67C162.555 313.733 162.932 312.827 163.398 311.967C164.299 310.406 165.221 308.845 166.269 307.375C167.293 305.891 168.428 304.487 169.664 303.175C170.639 302.274 171.683 301.45 172.786 300.71C172.618 299.163 172.786 297.651 172.262 296.419C171.252 293.914 170.628 291.271 170.411 288.578Z" fill="#AED5EF"/>
<path d="M194.913 269.39C194.697 269.229 194.299 268.9 193.873 268.62C191.749 267.219 189.617 265.843 187.475 264.489C186.719 263.94 185.91 263.471 185.058 263.089C182.012 261.934 180.294 262.081 178.848 264.342C178.264 265.045 177.598 265.674 176.865 266.218C177.27 271.042 177.975 275.977 178.038 280.92C178.101 285.862 177.521 290.804 177.207 296.013C184.611 287.906 191.044 279.639 194.913 269.39Z" fill="#F7C5B4"/>
<path d="M259.906 148.847C261.01 150.394 261.555 150.716 263.468 151.122C265.63 151.61 267.857 151.747 270.062 151.528C270.942 151.423 272.025 151.213 272.157 152.655C274.414 152.172 276.76 152.123 278.521 150.653C281.045 148.55 283.46 146.318 285.757 143.967C287.391 142.287 287.391 140.32 285.966 138.465C285.124 137.336 284.127 136.332 283.005 135.483C279.554 132.983 276.327 130.295 274.001 126.655C273.734 126.185 273.381 125.769 272.961 125.43C272.577 125.157 271.927 124.856 271.564 125.003C271.359 125.156 271.187 125.349 271.059 125.57C270.93 125.792 270.848 126.037 270.816 126.291C270.74 126.756 270.811 127.233 271.019 127.656C272.262 130.181 273.54 132.692 274.854 135.189C275.363 136.155 275.957 136.988 277.354 136.743C277.539 136.702 277.73 136.704 277.914 136.749C278.098 136.794 278.269 136.881 278.414 137.003C278.559 137.124 278.674 137.278 278.751 137.451C278.828 137.625 278.863 137.813 278.856 138.003C278.856 138.633 278.157 138.808 277.019 138.451C276.404 138.255 275.866 137.828 275.14 138.276C273.911 139.032 272.577 138.745 271.228 138.549C268.979 138.227 266.716 138.017 264.46 137.779C264.058 137.742 263.652 137.773 263.259 137.87C262.051 138.192 261.764 139.102 262.7 139.907C263.388 140.545 264.209 141.023 265.103 141.307C268.344 142.126 271.62 142.798 274.881 143.519C275.915 143.743 276.977 143.827 277.675 144.919C276.781 145.843 275.88 145.255 275.042 145.024C273.728 144.555 272.39 144.158 271.033 143.834C268.239 143.407 265.445 143.134 262.651 142.889C261.792 142.798 260.891 142.749 260.29 143.673C260.751 144.968 261.96 145.136 263.014 145.444C265.11 146.032 267.205 146.46 269.238 147.076C270.844 147.559 272.395 148.14 274.127 148.021C274.826 147.972 275.741 147.986 276.118 149.113C275.723 149.309 275.293 149.421 274.853 149.443C274.413 149.464 273.973 149.395 273.561 149.239C272.736 148.969 271.883 148.793 271.019 148.714C268.134 148.63 265.25 148.637 262.365 148.637C261.68 148.658 260.975 148.763 259.906 148.847Z" fill="#F7C5B4"/>
<path d="M192.93 56.481C192.839 57.4681 194.48 57.4261 193.894 58.5112C191.4 59.0013 190.499 58.8192 189.2 57.4471L192.078 57.9372L190.897 56.054L195.437 55.0179V54.6539L193.733 54.0658L195.87 52.1897C194.715 51.9892 193.534 51.9892 192.378 52.1897C186.965 52.9597 181.531 57.6081 181.664 64.3777C181.705 66.5899 181.664 68.8161 181.664 71.0283C181.664 71.8053 181.831 72.5684 181.929 73.4435C185.386 71.3433 185.791 71.4623 187.978 74.8086C188.089 74.9766 188.194 75.1516 188.306 75.3126L189.801 77.3708C191.072 76.3557 191.114 76.3417 190.841 75.3406C190.492 74.0385 190.045 72.7714 189.696 71.4763C188.369 66.6459 189.975 63.0266 194.432 60.7374C195.926 59.9743 197.484 59.3373 198.895 58.4342C199.533 57.9991 200.253 57.6983 201.01 57.5503C201.768 57.4023 202.548 57.4101 203.302 57.5731C206.145 58.1892 208.583 57.2371 210.811 55.564C211.356 55.1509 211.817 54.6259 212.564 53.9328C210.622 53.8908 209.106 54.9059 207.36 53.9328C208.157 53.3563 208.817 52.6094 209.29 51.7462C209.764 50.8829 210.04 49.9248 210.098 48.9414C208.429 50.1315 207.018 51.2446 205.062 51.7417C205.223 50.4466 205.363 49.3404 205.523 48.0383L201.654 51.6296C201.724 51.1816 201.78 50.8666 201.828 50.5655C198.273 49.5574 197.232 50.7056 195.996 53.4288L198.853 53.2468C197.384 55.0687 195.254 56.2319 192.93 56.481Z" fill="#3C3C3A"/>
<path d="M173.233 324.246C173.915 324.738 174.54 325.304 175.098 325.933C175.426 326.396 175.874 326.76 176.393 326.986C176.913 327.212 177.484 327.291 178.045 327.214C181.335 327.191 184.617 327.551 187.824 328.286C190.293 328.797 192.827 328.916 195.333 328.636C194.46 328.468 193.866 328.398 193.3 328.237C192.771 328.152 192.271 327.935 191.847 327.607C191.574 327.146 191.389 326.638 191.302 326.108L188.606 325.968L189.913 323.672C189.452 323.672 189.116 323.672 188.788 323.672C188.041 323.672 187.237 323.672 186.937 322.79C186.637 321.908 187.454 321.67 187.908 321.229C187.978 321.159 187.95 320.998 187.971 320.823C187.507 320.879 187.038 320.879 186.574 320.823C186.162 320.725 185.568 320.501 185.477 320.2C185.47 319.979 185.512 319.76 185.6 319.558C185.689 319.355 185.821 319.175 185.987 319.031C186.692 318.485 187.429 317.983 188.194 317.526C187.321 317.435 186.453 317.292 185.596 317.099C185.385 317.039 185.19 316.934 185.024 316.79C184.859 316.646 184.727 316.467 184.639 316.266C184.583 315.951 184.967 315.447 185.289 315.195C185.653 314.962 186.048 314.781 186.462 314.655L176.886 310.777C174.841 310.071 173.087 308.704 171.899 306.892C171.836 306.78 171.599 306.773 171.368 306.696C171.235 309.328 172.004 311.687 172.765 314.053C173.792 317.323 174.371 320.676 173.233 324.246Z" fill="#CA9A2C"/>
<path d="M203.092 207.071C202.582 206.686 202.219 206.371 201.842 206.126C198.169 203.636 194.005 201.965 189.633 201.225C185.885 200.668 182.437 198.851 179.854 196.073C177.721 193.697 174.784 192.2 171.612 191.872C171.081 191.809 170.565 191.655 170.034 191.571C167.769 191.229 165.638 190.281 163.866 188.827C163.363 188.414 162.811 188.043 162.057 187.49C162.155 188.148 162.211 188.519 162.26 188.89C162.644 191.739 163.252 194.589 162.595 197.48C161.938 200.371 163.293 201.939 166.22 201.19C170.278 200.208 174.521 200.31 178.527 201.484C181.887 202.38 185.232 203.395 188.634 204.074C193.349 205.012 198.224 205.173 202.68 207.26C202.771 207.267 202.813 207.183 203.092 207.071Z" fill="#002E9A"/>
<path d="M138.023 338.276C131.653 335.783 128.803 330.778 127.427 324.484C126.533 325.961 126.386 327.572 126.184 329.14C125.737 332.64 125.485 336.238 123.11 339.221C124.368 340.726 125.513 342.126 126.693 343.484C126.953 343.788 127.299 344.005 127.685 344.107C130.842 344.807 133.273 346.606 135.369 349.007C136.265 350.14 137.527 350.925 138.938 351.227L140.069 349.946C139.874 349.792 139.776 349.694 139.664 349.624C139.182 349.343 138.407 349.161 138.267 348.762C137.995 347.936 138.861 347.726 139.441 347.404C139.573 347.334 139.643 347.145 139.72 347.047L138.002 345.766L140.467 344.296L139.497 343.925C139.115 343.817 138.747 343.664 138.4 343.47C137.604 342.924 137.701 342.154 138.568 341.797C139.126 341.573 139.727 341.454 140.495 341.23C137.485 339.823 137.485 339.823 138.023 338.276Z" fill="#CA9A2C"/>
<path d="M181.014 328.216C180.972 328.349 180.937 328.482 180.895 328.615C182.529 330.288 184.304 331.856 185.784 333.669C190.345 339.34 196.394 341.237 203.386 341.055C204.133 338.556 203.092 336.659 201.598 334.929C200.103 333.2 198.476 331.429 196.708 329.504C191.519 330.477 186.315 328.706 181.014 328.216Z" fill="#CA9A2C"/>
<path d="M240.936 136.855C241.03 138.057 241.03 139.265 240.936 140.467C240.587 142.623 241.411 144.149 242.975 145.507C244.54 146.866 246.063 148.413 247.502 149.785L254.011 147.685C254.011 146.221 253.927 144.947 254.011 143.687C254.172 141.727 253.802 140.187 252.118 138.787C250.575 137.562 249.325 135.924 248.046 134.523L240.936 136.855Z" fill="white"/>
<path d="M265.166 122.084C264.356 120.683 263.594 119.479 262.966 118.226C262.653 117.549 262.148 116.98 261.515 116.587C260.882 116.195 260.147 115.998 259.403 116.021C256.938 115.965 254.465 116.021 252.342 116.021L248.193 120.851L251.832 126.522C253.131 126.522 254.332 126.522 255.541 126.522C256.749 126.522 258.09 126.69 259.361 126.641C259.944 126.598 260.499 126.372 260.947 125.997C262.358 124.765 263.699 123.449 265.166 122.084Z" fill="white"/>
<path d="M247.906 121.607C246.656 121.607 245.657 121.607 244.666 121.607C241.487 121.733 241.487 121.74 239.979 124.597C239.675 125.118 239.405 125.658 239.169 126.214C238.47 128.013 237.876 129.833 237.332 131.359L240.999 136.12L247.117 134.089C247.767 132.626 248.249 131.457 248.8 130.33C249.235 129.42 249.728 128.538 250.274 127.691C250.531 127.339 250.663 126.911 250.65 126.475C250.638 126.039 250.481 125.62 250.204 125.283C249.387 124.065 248.64 122.791 247.906 121.607Z" fill="white"/>
<path d="M265.816 122.482L261.136 126.858C261.527 130.001 261.876 132.843 262.26 135.959C263.587 136.288 265.124 136.736 266.682 137.058C268.512 137.429 270.377 137.646 272.2 138.045C272.702 138.214 273.241 138.243 273.758 138.127C274.275 138.011 274.751 137.755 275.133 137.387C273.624 134.866 272.06 132.486 270.726 129.917C270.188 128.902 270.132 127.621 269.936 126.417C269.887 125.813 269.887 125.207 269.936 124.604L265.816 122.482Z" fill="white"/>
<path d="M131.618 346.914C132.155 349.981 132.414 352.662 133.126 355.217C134.586 360.411 138.309 363.436 143.282 363.933C144.414 364.045 145.084 363.709 145.468 362.68C146.124 361.13 146.24 359.403 145.797 357.779C145.266 356.071 144.574 354.412 143.96 352.739C141.557 352.655 139.154 352.886 137.185 351.584C135.327 350.317 133.72 348.678 131.618 346.914Z" fill="#CA9A2C"/>
<path d="M235.299 125.822C237.912 121.166 241.215 117.316 245.672 114.838C244.638 113.676 243.723 112.605 242.766 111.575C241.809 110.546 240.671 109.286 239.546 108.257C238.088 106.958 236.343 106.025 234.454 105.534C236.047 109.034 236.096 112.444 235.704 115.867C235.537 117.267 235.271 118.667 235.083 120.067C234.77 121.98 234.843 123.937 235.299 125.822Z" fill="#CA9A2C"/>
<path d="M254.8 147.706L259.166 149.582C259.683 148.224 260.716 147.937 261.96 147.972C263.566 148.018 265.17 148.058 266.772 148.091C267.471 148.091 268.169 148.091 268.868 148.091C268.317 147.599 267.643 147.268 266.919 147.132C265.431 146.754 263.894 146.508 262.449 146.004C261.527 145.654 260.679 145.134 259.948 144.471C259.811 144.366 259.705 144.225 259.642 144.064C259.579 143.903 259.561 143.728 259.59 143.557C259.618 143.387 259.693 143.227 259.805 143.096C259.918 142.965 260.064 142.867 260.227 142.812C260.949 142.503 261.726 142.343 262.511 142.343C263.622 142.343 264.726 142.511 265.836 142.602C265.304 142.272 264.743 141.991 264.16 141.762C263.677 141.526 263.21 141.257 262.763 140.957C260.737 139.683 260.723 138.717 262.679 137.226C262.749 137.177 262.721 136.988 262.784 136.526C262.043 136.624 261.261 136.526 260.688 136.827C258.663 137.975 256.707 139.256 254.8 140.446V147.706Z" fill="white"/>
<path d="M203.002 341.811C201.912 341.811 200.983 341.86 200.061 341.811C194.99 341.524 190.513 339.809 186.93 336.112C184.737 333.851 182.613 331.513 180.539 329.112C180.175 328.627 179.653 328.284 179.064 328.144C178.475 328.003 177.855 328.073 177.312 328.342C178.995 330.841 180.427 333.361 182.236 335.573C184.974 338.927 188.858 340.74 192.664 342.574C195.214 343.792 197.966 343.897 200.732 343.771C201.828 343.736 202.701 343.421 203.002 341.811Z" fill="#2D1715"/>
<path d="M176.082 298.848C175.801 299.383 175.469 299.889 175.091 300.36C173.784 301.683 174.071 303.161 174.979 304.386C175.762 305.471 176.72 306.417 177.815 307.186C180.888 309.261 184.477 310.439 188.18 310.588C190.093 310.739 192.014 310.41 193.768 309.629L193.412 308.39C187.642 309.167 180.001 304.974 176.082 298.848Z" fill="#CA9A2C"/>
<path d="M170.509 303.679C169.805 304.266 169.161 304.923 168.588 305.639C167.561 307.2 166.723 308.887 165.738 310.476C165.389 310.977 165.199 311.572 165.193 312.183C165.186 312.793 165.364 313.392 165.703 313.9C166.574 315.241 167.548 316.512 168.616 317.701C169.581 318.725 170.597 319.7 171.661 320.62C171.969 320.914 172.36 321.152 172.912 321.6C172.959 321.039 172.959 320.474 172.912 319.913C172.493 317.75 172.15 315.559 171.515 313.445C170.485 310.299 170.142 306.969 170.509 303.679Z" fill="#CA9A2C"/>
<path d="M197.589 141.006C197.383 140.632 197.149 140.274 196.89 139.935C195.035 137.715 193.495 135.249 192.315 132.605C191.421 130.79 190.152 129.187 188.592 127.901C186.43 126.199 184.544 124.17 183.004 121.887C182.561 121.365 182.059 120.896 181.51 120.487C181.191 121.859 181.359 123.3 181.985 124.562C183.637 128.562 186.332 132.044 189.787 134.643C192.294 136.631 194.767 138.703 197.589 141.006Z" fill="#2D1715"/>
<path d="M133.818 321.243C133.496 321.195 133.172 321.167 132.847 321.159C130.507 321.341 129.851 322.111 130.186 324.386C130.315 325.177 130.55 325.947 130.884 326.675C132.065 329.378 134.014 331.492 136.123 333.48C137.998 335.137 140.358 336.139 142.849 336.336C144.246 336.511 144.602 336.091 144.574 334.565C144.454 334.516 144.331 334.476 144.204 334.446C144.002 334.446 143.799 334.446 143.604 334.397C142.162 334.313 140.761 333.881 139.522 333.137C138.283 332.393 137.241 331.361 136.486 330.127C134.7 327.514 133.767 324.41 133.818 321.243Z" fill="#CA9A2C"/>
<path d="M188.103 93.9832C186.14 94.5362 185.826 94.9352 186.748 96.3914C188.243 98.7738 189.876 101.067 191.637 103.259C192.873 104.702 194.517 105.735 196.352 106.22C197.896 106.675 199.397 107.284 200.955 107.662C201.836 107.931 202.777 107.931 203.658 107.662C207.618 105.912 209.246 102.251 208.086 97.7705C207.87 98.0225 207.625 98.1835 207.57 98.3865C207.201 99.5948 206.907 100.825 206.689 102.069C206.361 104.428 205.83 104.995 203.518 105.044C202.24 105.044 200.969 105.044 199.691 105.107C198.683 105.179 197.671 105.033 196.725 104.678C195.779 104.322 194.92 103.767 194.208 103.049C192.811 101.649 191.414 100.123 190.087 98.6316C188.885 97.3574 187.984 95.8733 188.103 93.9832Z" fill="#2D1715"/>
<path d="M128.216 345.549C128.803 347.978 129.334 350.449 129.997 352.886C130.9 356.693 132.677 360.236 135.187 363.233C135.892 364.047 136.77 364.694 137.755 365.127C138.741 365.559 139.811 365.766 140.887 365.732C141.317 365.796 141.757 365.738 142.156 365.563C142.555 365.388 142.897 365.105 143.143 364.745C142.865 364.622 142.577 364.522 142.284 364.444C137.695 363.744 134.6 361.202 132.903 356.897C131.925 354.249 131.387 351.459 131.311 348.636C131.171 346.235 130.703 345.878 128.216 345.549Z" fill="#CA9A2C"/>
<path d="M225.974 162.694C225.416 159.263 224.71 155.847 224.333 152.396C223.69 146.543 220.778 142.322 215.839 139.256C213.982 138.101 212.403 136.456 210.699 135.055C210 134.481 209.302 133.921 208.603 133.361C208.525 133.605 208.501 133.864 208.535 134.119C208.569 134.373 208.659 134.616 208.799 134.831C209.513 135.8 210.315 136.699 211.195 137.52C213.29 139.298 215.441 141.02 217.635 142.658C219.106 143.718 220.354 145.059 221.307 146.604C222.26 148.149 222.899 149.868 223.187 151.661C223.369 152.781 223.516 153.915 223.669 155.042C223.916 157.722 224.7 160.325 225.974 162.694Z" fill="#2D1715"/>
<path d="M173.149 301.837C171.808 302.313 171.871 303.238 171.941 304.099C171.99 305.114 172.308 306.099 172.861 306.951C173.415 307.804 174.184 308.494 175.091 308.95C177.04 309.979 179.107 310.784 181.119 311.701C184.898 313.416 188.802 314.018 192.937 312.807C193.042 312.345 193.167 311.834 193.279 311.316C193.279 311.281 193.195 311.225 193.063 311.078C192.825 311.078 192.504 311.134 192.197 311.197C189.409 311.831 186.514 311.821 183.731 311.168C180.948 310.516 178.35 309.238 176.132 307.431C175.226 306.804 174.483 305.97 173.964 304.997C173.445 304.024 173.166 302.94 173.149 301.837Z" fill="#CA9A2C"/>
<path d="M127.56 322.384C125.283 322.853 122.67 324.484 121.818 325.885C121.584 326.359 121.435 326.871 121.378 327.397C120.771 330.631 122.419 333.158 124.13 336.189C124.479 334.516 124.78 333.291 124.975 332.059C125.485 328.846 125.429 325.486 127.56 322.384Z" fill="#CA9A2C"/>
<path d="M219.535 271.994C214.708 273.695 202.345 287.927 200.857 293.178C203.847 289.593 206.766 286.023 209.763 282.516C212.759 279.009 216.377 275.956 219.535 271.994Z" fill="#AED5EF"/>
<path d="M213.15 235.052C213.786 238.258 214.387 241.282 215.022 244.517C216.881 242.926 218.653 241.237 220.331 239.455C218.285 237.482 215.834 235.98 213.15 235.052Z" fill="#002E9A"/>
<path d="M160.604 318.646C160.157 317.736 159.745 317.988 159.207 318.303C157.112 319.598 154.961 320.858 152.816 322.111C149.729 323.879 146.837 325.97 144.19 328.349C142.751 329.665 141.215 330.876 139.594 332.248L142.067 333.354C142.207 333.091 142.366 332.838 142.542 332.598C146.942 327.446 151.818 322.909 158.202 320.277C159.058 319.82 159.863 319.274 160.604 318.646Z" fill="#AED5EF"/>
<path d="M176.404 135.161C176.965 136.398 177.796 137.493 178.834 138.367C180.637 140.068 182.487 141.727 184.297 143.435C187.349 146.327 189.437 149.96 191.847 153.355C193.034 155.021 194.25 156.666 195.458 158.326C195.668 157.997 195.675 157.801 195.605 157.625C193.414 152.549 190.204 147.978 186.175 144.198C183.039 141.265 180.022 138.206 176.949 135.21C176.886 135.161 176.732 135.161 176.404 135.161Z" fill="#2D1715"/>
<path d="M247.474 152.263C247.457 151.732 247.333 151.209 247.108 150.728C246.884 150.247 246.563 149.816 246.167 149.463C244.673 148.063 243.143 146.627 241.802 145.066C240.65 143.729 239.462 143.211 237.688 144.1C239.853 148.084 243.136 150.632 247.474 152.263Z" fill="white"/>
<path d="M128.684 322.937C128.125 326.494 130.081 331.513 133.133 334.509C136.186 337.505 139.95 337.926 144.016 337.842C135.264 336.553 130.549 331.24 128.684 322.937Z" fill="#CA9A2C"/>
<path d="M152.907 317.547L152.649 317.309L136.417 328.188C136.724 328.657 137.115 329.287 137.45 329.798C138.358 329.035 139.085 328.356 139.881 327.775C141.976 326.241 144.184 324.813 146.237 323.203C148.507 321.376 150.679 319.437 152.907 317.547Z" fill="#AED5EF"/>
<path d="M164.572 312.513C163.315 313.669 163.259 314.047 163.957 315.622C165.647 319.458 168.993 321.488 172.486 323.462C172.525 323.258 172.524 323.047 172.482 322.843C172.44 322.638 172.358 322.445 172.241 322.272C171.047 321.012 169.845 319.752 168.546 318.604C166.66 316.938 165.145 315.076 164.572 312.513Z" fill="#2D1715"/>
<path d="M122.573 338.444C123.502 336.953 123.502 336.953 122.915 335.72C121.728 333.207 120.065 330.82 120.666 327.614C119.01 328.559 118.668 329.714 119.08 331.156C119.913 333.731 121.088 336.182 122.573 338.444Z" fill="#2D1715"/>
<path d="M240.572 121.159C237.702 123.008 235.194 129.063 236.004 133.186C236.123 132.857 236.249 132.528 236.368 132.206L240.572 121.159Z" fill="white"/>
<path d="M138.609 342.763L143.094 344.387L143.059 344.856L140.048 345.556C140.048 345.682 140.048 345.808 140.048 345.927L143.799 346.627V342.427C142.179 342.189 140.565 341.923 138.609 342.763Z" fill="#CA9A2C"/>
<path d="M211.97 254.416C212.592 255.116 213.22 255.872 213.814 256.551L217.768 252.953C215.756 252.168 213.835 252.665 211.97 254.416Z" fill="#AED5EF"/>
<path d="M260.046 152.837C261.89 154.104 267.142 153.957 270.027 152.893C268.77 152.319 264.586 152.004 261.82 152.305C261.216 152.436 260.623 152.614 260.046 152.837Z" fill="white"/>
<path d="M233.071 264.041C230.821 264.419 228.711 265.385 226.952 266.841L230.445 267.983C231.408 266.498 232.247 265.287 233.071 264.041Z" fill="#AED5EF"/>
<path d="M228.182 260.723L224.892 258.854C224.361 259.68 223.928 260.324 223.495 260.954C223.062 261.584 222.524 262.081 222.566 263.054L228.182 260.723Z" fill="#AED5EF"/>
<path d="M144.099 339.27C142.274 338.628 140.271 338.721 138.512 339.529L144.099 341.832V339.27Z" fill="#CA9A2C"/>
<path d="M222.566 263.894C222.566 264.055 222.566 264.209 222.566 264.37L225.36 265.897L228.272 261.962L228.056 261.647L222.566 263.894Z" fill="#AED5EF"/>
<path d="M223.404 259.204L223.194 258.882L218.214 261.171L220.924 263.201C221.832 261.745 222.622 260.471 223.404 259.204Z" fill="#AED5EF"/>
<path d="M166.101 304.155L165.661 303.707L158.139 312.359L158.446 312.639C161.226 310.014 164.069 307.459 166.101 304.155Z" fill="#AED5EF"/>
<path d="M227.015 265.035L227.308 265.273C229.118 264.482 230.927 263.684 233.008 262.781L230.026 261.444L227.015 265.035Z" fill="#AED5EF"/>
<path d="M218.633 253.288L214.917 256.6L215.211 257.083L220.799 254.983L218.633 253.288Z" fill="#AED5EF"/>
<path d="M188.159 322.244L188.327 322.839L194.39 322.076L193.153 320.095L188.159 322.244Z" fill="#CA9A2C"/>
<path d="M192.294 317.442C190.199 317.883 188.341 318.373 186.762 319.542L186.867 319.976L192.797 319.353C192.615 318.639 192.476 318.079 192.294 317.442Z" fill="#CA9A2C"/>
<path d="M220.38 256.362L220.184 256.005L215.05 257.902L217.027 260.002L220.38 256.362Z" fill="#AED5EF"/>
<path d="M195.57 299.737C194.515 300.997 193.474 302.272 192.392 303.518C191.309 304.764 190.241 305.919 189.011 307.284C190.897 307.095 194.096 303.539 195.57 299.737Z" fill="#AED5EF"/>
<path d="M171.445 289.775L176.334 288.564C176.369 287.864 176.404 287.304 176.467 286.275C174.832 287.696 172.36 287.073 171.445 289.775Z" fill="#AED5EF"/>
<path d="M251.664 114.593V115.167H259.71C257.193 113.978 254.324 113.774 251.664 114.593Z" fill="white"/>
<path d="M221.986 256.355C220.799 257.629 219.5 258.602 218.843 260.156L223.733 257.944L221.986 256.355Z" fill="#AED5EF"/>
<path d="M206.159 255.305L206.934 256.908L210.503 253.498L207.947 252.994L206.159 255.305Z" fill="#2D1715"/>
<path d="M186.245 315.888C186.28 316.042 186.308 316.203 186.343 316.364H192.203C192.273 315.79 192.336 315.307 192.42 314.614L186.245 315.888Z" fill="#CA9A2C"/>
<path d="M176.292 289.79C174.427 289.447 173.086 290.035 171.668 290.742C171.822 291.26 171.941 291.68 172.115 292.289C173.436 291.274 175.273 291.519 176.292 289.79Z" fill="#AED5EF"/>
<path d="M195.786 324.989L192.615 326.711L192.72 327.236L196.415 327.628C196.198 326.613 196.038 325.941 195.786 324.989Z" fill="#CA9A2C"/>
<path d="M139.503 348.202L139.538 348.79L143.729 349.056V347.278L139.503 348.202Z" fill="#CA9A2C"/>
<path d="M234.405 263.614L231.8 267.542L232.205 267.857L235.697 264.286L234.405 263.614Z" fill="#AED5EF"/>
<path d="M214.023 58.8891L211.16 56.4529L209.763 57.573C210.335 58.0897 211.012 58.4751 211.748 58.7024C212.484 58.9297 213.26 58.9934 214.023 58.8891Z" fill="#2D1715"/>
<path d="M133.979 319.311C135.236 317.253 135.264 317.141 134.677 315.678C133.238 316.854 133.106 317.505 133.979 319.311Z" fill="#2D1715"/>
<path d="M162.595 315.412C161.952 316.287 160.66 316.35 160.926 318.002L163.65 317.414C163.265 316.672 162.993 316.154 162.595 315.412Z" fill="#2D1715"/>
<path d="M187.272 87.2625C187.461 84.1332 187.202 83.5942 185.421 83.1812C185.505 84.7563 186.497 85.7924 187.272 87.2625Z" fill="#2D1715"/>
<path d="M190.897 307.543C193.237 307.354 193.356 307.214 194.173 304.043L190.897 307.543Z" fill="#2D1715"/>
<path d="M195.375 324.211C194.962 323.7 194.676 323.154 194.529 323.189C193.12 323.395 191.837 324.116 190.925 325.212L195.375 324.211Z" fill="#CA9A2C"/>
<path d="M176.02 293.311C175.978 292.681 175.943 292.226 175.901 291.533L172.786 292.933C172.821 293.052 172.862 293.178 172.897 293.304L176.02 293.311Z" fill="#AED5EF"/>
<path d="M199.977 344.772H197.184C197.547 345.472 197.68 346.221 198.015 346.326C199.132 346.662 199.37 345.654 199.977 344.772Z" fill="#2D1715"/>
<path d="M117.949 330.022C116.468 330.638 116.14 331.079 116.517 331.926C116.894 332.773 117.488 332.626 118.2 332.136C118.116 331.45 118.032 330.75 117.949 330.022Z" fill="#2D1715"/>
<path d="M134.321 363.884L132.889 362.231C132.491 363.023 131.457 363.478 132.365 364.332C133.092 365.039 133.623 364.325 134.321 363.884Z" fill="#2D1715"/>
<path d="M144.058 351.619C143.73 350.981 143.618 350.456 143.394 350.393C142.483 350.229 141.543 350.401 140.747 350.876L140.782 351.289L144.058 351.619Z" fill="#CA9A2C"/>
<path d="M119.751 335.916C119.353 336.616 118.822 337.183 118.934 337.491C119.276 338.436 120.023 338.023 120.785 337.813C120.707 337.541 120.612 337.274 120.498 337.015C120.268 336.636 120.018 336.27 119.751 335.916Z" fill="#2D1715"/>
<path d="M144.554 120.557C145.657 122.49 145.657 122.49 147.348 121.467L144.554 120.557Z" fill="#2D1715"/>
<path d="M179.023 332.647L177.892 331.135C177.193 331.436 176.495 331.646 176.935 332.535C177.458 333.662 178.094 332.878 179.023 332.647Z" fill="#2D1715"/>
<path d="M124.228 342.308C123.446 342.672 122.901 343.064 123.53 343.82C124.158 344.576 124.731 344.289 125.395 343.666L124.228 342.308Z" fill="#2D1715"/>
<path d="M184.541 339.144L182.914 337.981C182.062 339.004 182.062 339.004 183.34 340.005L184.541 339.144Z" fill="#2D1715"/>
<path d="M165.906 322.713C166.409 322.265 166.828 321.901 167.303 321.453L166.206 320.641C165.508 321.152 164.753 321.579 165.906 322.713Z" fill="#2D1715"/>
<path d="M129.599 355.581C128.845 355.581 128.398 355.805 128.621 356.526C128.845 357.247 129.382 357.709 130.36 357.31L129.599 355.581Z" fill="#2D1715"/>
<path d="M173.666 298.701C174.008 297.749 174.364 296.804 174.804 295.558C173.17 296.363 173.289 297.525 173.666 298.701Z" fill="#AED5EF"/>
<path d="M176.013 294.354C174.785 294.094 173.513 294.12 172.297 294.431C172.772 294.781 172.995 295.131 173.205 295.068C174.092 294.9 174.958 294.634 176.013 294.354Z" fill="#AED5EF"/>
<path d="M127.867 348.356L126.575 349.659L128.258 350.429L127.867 348.356Z" fill="#2D1715"/>
<path d="M191.77 343.484C190.897 342.63 190.464 343.197 190.108 343.785C190.024 343.932 190.192 344.24 190.248 344.485C190.681 344.289 191.114 344.1 191.533 343.876C191.631 343.813 191.666 343.652 191.77 343.484Z" fill="#2D1715"/>
<path d="M138.512 366.936C136.933 366.236 136.933 366.236 136.808 367.853L138.512 366.936Z" fill="#2D1715"/>
<path d="M216.419 72.4492C216.545 71.6861 216.573 70.9931 215.721 70.7271L216.419 72.4492Z" fill="#2D1715"/>
<path d="M172.835 326.039C172.918 325.829 172.995 325.626 173.079 325.423C172.736 325.276 172.384 325.152 172.024 325.052C171.922 325.251 171.838 325.46 171.773 325.675L172.835 326.039Z" fill="#2D1715"/>
<path d="M175.691 296.951L175.433 296.846L174.937 298.064L175.209 298.169L175.691 296.951Z" fill="#2D1715"/>
<path d="M213.465 78.8897L214.596 81.893C212.354 83.7551 210.51 83.6431 207.304 81.3679C208.01 80.477 208.933 79.7835 209.984 79.3543C211.035 78.9251 212.178 78.7747 213.304 78.9177L213.465 78.8897ZM208.443 81.0739C211.32 82.9851 213.157 82.5721 213.884 81.431L212.99 80.0308C211.607 81.1159 209.833 79.9328 208.443 81.0739Z" fill="#2D1715"/>
<path d="M196.212 70.6431C198.971 66.6038 203.833 65.1826 206.242 67.6398C204.447 67.7238 202.61 67.4998 200.976 67.9829C199.342 68.4659 197.917 69.656 196.212 70.6431Z" fill="#2D1715"/>
<path d="M198.105 70.9721C201.598 68.7669 204.126 68.5639 206.431 70.2301C205.984 70.4681 205.635 70.8111 205.258 70.8391C203.798 70.9371 202.331 70.9441 200.864 70.9721C200.061 70.9861 199.279 70.9721 198.105 70.9721ZM204.58 70.2721C204.138 69.876 203.567 69.657 202.974 69.657C202.381 69.657 201.809 69.876 201.367 70.2721H204.58Z" fill="#2D1715"/>
<path d="M215.015 68.4099C213.556 66.3728 210.978 65.6517 209.686 66.8768C210.621 66.8395 211.558 66.9029 212.48 67.0658C213.372 67.418 214.223 67.8688 215.015 68.4099Z" fill="#2D1715"/>
<path d="M212.871 69.9782C211.984 69.9782 211.09 69.9362 210.196 69.8452C209.973 69.8452 209.756 69.5022 209.498 69.2781C210.895 67.766 212.424 67.962 214.554 69.9782C213.849 69.9852 213.36 69.9922 212.871 69.9782ZM212.55 69.3551C211.851 68.5221 211.223 68.6551 210.601 69.3551H212.55Z" fill="#2D1715"/>
<path d="M213.744 83.8043C211.824 85.4215 209.742 85.1485 207.27 82.9363C209.372 83.6713 211.397 84.9874 213.744 83.8043Z" fill="#2D1715"/>
<path d="M213.465 78.8899H213.304C212.278 77.9238 211.16 77.7698 209.735 78.5189C208.939 78.9389 208.206 79.4779 207.2 80.115C208.324 78.1688 210.357 78.0148 211.803 76.8037C212.026 77.7558 213.661 77.4898 213.465 78.8899Z" fill="#2D1715"/>
<path d="M210.874 74.1643C208.883 74.4234 208.883 74.4234 207.961 73.6043C209.002 72.9742 209.798 73.2473 210.874 74.1643Z" fill="#2D1715"/>
<path d="M206.18 72.9673L206.962 74.9065C205.963 74.3674 205.963 74.3674 206.18 72.9673Z" fill="#2D1715"/>
<path d="M211.244 69.4741V69.425C211.243 69.4414 211.243 69.4577 211.244 69.4741Z" fill="#F7C5B4"/>
</g>
<defs>
<clipPath id="clip0_831_11053">
<rect width="171" height="323" fill="white" transform="translate(116 45)"/>
</clipPath>
</defs>
</svg>
