<svg width="32" height="32" viewBox="0 0 32 32" fill="none" xmlns="http://www.w3.org/2000/svg">
<path d="M15 24.3336H12C10.5333 24.3336 9.33333 25.5336 9.33333 27.0003V27.3336H8C7.45333 27.3336 7 27.7869 7 28.3336C7 28.8803 7.45333 29.3336 8 29.3336H24C24.5467 29.3336 25 28.8803 25 28.3336C25 27.7869 24.5467 27.3336 24 27.3336H22.6667V27.0003C22.6667 25.5336 21.4667 24.3336 20 24.3336H17V21.2803C16.6667 21.3203 16.3333 21.3336 16 21.3336C15.6667 21.3336 15.3333 21.3203 15 21.2803V24.3336Z" fill="#1D1750"/>
<path d="M24.6391 15.5203C25.5191 15.187 26.2924 14.6403 26.9057 14.027C28.1457 12.6537 28.9591 11.0137 28.9591 9.09366C28.9591 7.17366 27.4524 5.66699 25.5324 5.66699H24.7857C23.9191 3.89366 22.1057 2.66699 19.9991 2.66699H11.9991C9.8924 2.66699 8.07906 3.89366 7.2124 5.66699H6.46573C4.54573 5.66699 3.03906 7.17366 3.03906 9.09366C3.03906 11.0137 3.8524 12.6537 5.0924 14.027C5.70573 14.6403 6.47906 15.187 7.35906 15.5203C8.74573 18.9337 12.0791 21.3337 15.9991 21.3337C19.9191 21.3337 23.2524 18.9337 24.6391 15.5203ZM19.7857 11.267L18.9591 12.2803C18.8257 12.427 18.7324 12.7203 18.7457 12.9203L18.8257 14.227C18.8791 15.027 18.3057 15.4403 17.5591 15.147L16.3457 14.667C16.1591 14.6003 15.8391 14.6003 15.6524 14.667L14.4391 15.147C13.6924 15.4403 13.1191 15.027 13.1724 14.227L13.2524 12.9203C13.2657 12.7203 13.1724 12.427 13.0391 12.2803L12.2124 11.267C11.6924 10.6537 11.9191 9.97366 12.6924 9.77366L13.9591 9.45366C14.1591 9.40033 14.3991 9.21366 14.5057 9.04033L15.2124 7.94699C15.6524 7.26699 16.3457 7.26699 16.7857 7.94699L17.4924 9.04033C17.5991 9.21366 17.8391 9.40033 18.0391 9.45366L19.3057 9.77366C20.0791 9.97366 20.3057 10.6537 19.7857 11.267Z" fill="#1D1750"/>
</svg>
