<svg width="25" height="25" viewBox="0 0 25 25" fill="none" xmlns="http://www.w3.org/2000/svg">
<path opacity="0.34" d="M12.6504 17V19.1" stroke="#1D1750" stroke-width="1.5" stroke-linecap="round" stroke-linejoin="round"/>
<path d="M7.65039 22.5H17.6504V21.5C17.6504 20.4 16.7504 19.5 15.6504 19.5H9.65039C8.55039 19.5 7.65039 20.4 7.65039 21.5V22.5V22.5Z" stroke="#1D1750" stroke-width="1.5" stroke-miterlimit="10"/>
<path d="M6.65039 22.5H18.6504" stroke="#1D1750" stroke-width="1.5" stroke-linecap="round" stroke-linejoin="round"/>
<path d="M12.5 16.5C8.63 16.5 5.5 13.37 5.5 9.5V6.5C5.5 4.29 7.29 2.5 9.5 2.5H15.5C17.71 2.5 19.5 4.29 19.5 6.5V9.5C19.5 13.37 16.37 16.5 12.5 16.5Z" stroke="#1D1750" stroke-width="1.5" stroke-linecap="round" stroke-linejoin="round"/>
<path opacity="0.34" d="M5.96906 12.1496C5.21906 11.9096 4.55906 11.4696 4.03906 10.9496C3.13906 9.94961 2.53906 8.74961 2.53906 7.34961C2.53906 5.94961 3.63906 4.84961 5.03906 4.84961H5.68906C5.48906 5.30961 5.38906 5.81961 5.38906 6.34961V9.34961C5.38906 10.3496 5.59906 11.2896 5.96906 12.1496Z" stroke="#1D1750" stroke-width="1.5" stroke-linecap="round" stroke-linejoin="round"/>
<path opacity="0.34" d="M19.0293 12.1496C19.7793 11.9096 20.4393 11.4696 20.9593 10.9496C21.8593 9.94961 22.4593 8.74961 22.4593 7.34961C22.4593 5.94961 21.3593 4.84961 19.9593 4.84961H19.3093C19.5093 5.30961 19.6093 5.81961 19.6093 6.34961V9.34961C19.6093 10.3496 19.3993 11.2896 19.0293 12.1496Z" stroke="#1D1750" stroke-width="1.5" stroke-linecap="round" stroke-linejoin="round"/>
</svg>
