<svg width="25" height="25" viewBox="0 0 25 25" fill="none" xmlns="http://www.w3.org/2000/svg">
<path d="M12.5 12.5C13.8261 12.5 15.0979 11.9732 16.0355 11.0355C16.9732 10.0979 17.5 8.82608 17.5 7.5C17.5 6.17392 16.9732 4.90215 16.0355 3.96447C15.0979 3.02678 13.8261 2.5 12.5 2.5C11.1739 2.5 9.90215 3.02678 8.96447 3.96447C8.02678 4.90215 7.5 6.17392 7.5 7.5C7.5 8.82608 8.02678 10.0979 8.96447 11.0355C9.90215 11.9732 11.1739 12.5 12.5 12.5Z" stroke="#1D1750" stroke-width="1.5" stroke-linecap="round" stroke-linejoin="round"/>
<path opacity="0.4" d="M21.0902 22.5C21.0902 18.63 17.2402 15.5 12.5002 15.5C7.76016 15.5 3.91016 18.63 3.91016 22.5" stroke="#1D1750" stroke-width="1.5" stroke-linecap="round" stroke-linejoin="round"/>
</svg>
