<svg width="25" height="25" viewBox="0 0 25 25" fill="none" xmlns="http://www.w3.org/2000/svg">
<path d="M17.5 18.9297H13.5L9.05 21.8897C8.89982 21.9898 8.72528 22.0473 8.545 22.056C8.36472 22.0646 8.18546 22.0242 8.02635 21.939C7.86724 21.8538 7.73424 21.727 7.64154 21.5722C7.54884 21.4173 7.49992 21.2402 7.5 21.0597V18.9297C4.5 18.9297 2.5 16.9297 2.5 13.9297V7.92969C2.5 4.92969 4.5 2.92969 7.5 2.92969H17.5C20.5 2.92969 22.5 4.92969 22.5 7.92969V13.9297C22.5 16.9297 20.5 18.9297 17.5 18.9297Z" stroke="#1D1750" stroke-width="1.5" stroke-miterlimit="10" stroke-linecap="round" stroke-linejoin="round"/>
<path opacity="0.4" d="M12.4998 11.8604V11.6504C12.4998 10.9704 12.9198 10.6104 13.3398 10.3204C13.7498 10.0404 14.1598 9.68035 14.1598 9.02035C14.1598 8.10035 13.4198 7.36035 12.4998 7.36035C11.5798 7.36035 10.8398 8.10035 10.8398 9.02035M12.4948 14.2504H12.5048" stroke="#1D1750" stroke-width="1.5" stroke-linecap="round" stroke-linejoin="round"/>
</svg>
