<svg width="24" height="24" viewBox="0 0 24 24" fill="none" xmlns="http://www.w3.org/2000/svg">
<path d="M6.94 20.63C8.42 21.5 10.15 22 12 22C17.52 22 22 17.52 22 12C22 6.48 17.52 2 12 2C6.48 2 2 6.48 2 12C2 13.82 2.49 15.53 3.34 17L2 22L6.94 20.63Z" stroke="#1D1750" stroke-width="1.5" stroke-miterlimit="10" stroke-linecap="round" stroke-linejoin="round"/>
<path opacity="0.4" d="M17 15.1705C17 15.3505 16.96 15.5405 16.87 15.7205C16.6288 16.2152 16.2168 16.6059 15.71 16.8205C15.41 16.9505 15.08 17.0105 14.73 17.0105C14.22 17.0105 13.67 16.8905 13.1 16.6405C12.52 16.3905 11.95 16.0605 11.38 15.6505C10.8 15.2305 10.26 14.7605 9.74 14.2505C9.22 13.7305 8.76 13.1805 8.34 12.6105C7.93 12.0405 7.6 11.4705 7.36 10.9005C7.12 10.3305 7 9.78047 7 9.26047C7 8.92047 7.06 8.59047 7.18 8.29047C7.3 7.98047 7.49 7.70047 7.76 7.45047C8.08 7.13047 8.43 6.98047 8.8 6.98047C8.94 6.98047 9.08 7.01047 9.21 7.07047C9.34 7.13047 9.46 7.22047 9.55 7.35047L10.71 8.99047C10.8 9.12047 10.87 9.23047 10.91 9.34047C10.96 9.45047 10.98 9.55047 10.98 9.65047C10.98 9.77047 10.94 9.89047 10.87 10.0105C10.8 10.1305 10.71 10.2505 10.59 10.3705L10.21 10.7705C10.15 10.8305 10.13 10.8905 10.13 10.9705C10.13 11.0105 10.14 11.0505 10.15 11.0905C10.17 11.1305 10.18 11.1605 10.19 11.1905C10.28 11.3605 10.44 11.5705 10.66 11.8305C11.1282 12.3806 11.6398 12.8923 12.19 13.3605C12.45 13.5805 12.67 13.7305 12.84 13.8205C12.87 13.8305 12.9 13.8505 12.93 13.8605C12.97 13.8805 13.01 13.8805 13.06 13.8805C13.15 13.8805 13.21 13.8505 13.27 13.7905L13.65 13.4105C13.78 13.2805 13.9 13.1905 14.01 13.1305C14.13 13.0605 14.24 13.0205 14.37 13.0205C14.47 13.0205 14.57 13.0405 14.68 13.0905C14.79 13.1405 14.91 13.2005 15.03 13.2905L16.69 14.4705C16.82 14.5605 16.91 14.6705 16.97 14.7905C16.97 14.9105 17 15.0305 17 15.1705V15.1705Z" stroke="#1D1750" stroke-width="1.5" stroke-miterlimit="10"/>
</svg>
