<svg width="32" height="31" viewBox="0 0 32 31" fill="none" xmlns="http://www.w3.org/2000/svg">
<path opacity="0.4" d="M12.0007 12.9167C13.4734 12.9167 14.6673 11.7601 14.6673 10.3333C14.6673 8.9066 13.4734 7.75 12.0007 7.75C10.5279 7.75 9.33398 8.9066 9.33398 10.3333C9.33398 11.7601 10.5279 12.9167 12.0007 12.9167Z" stroke="#707070" stroke-width="1.5" stroke-linecap="round" stroke-linejoin="round"/>
<path d="M17.3327 2.5835H11.9993C5.33268 2.5835 2.66602 5.16683 2.66602 11.6252V19.3752C2.66602 25.8335 5.33268 28.4168 11.9993 28.4168H19.9993C26.666 28.4168 29.3327 25.8335 29.3327 19.3752V12.9168" stroke="#707070" stroke-width="1.5" stroke-linecap="round" stroke-linejoin="round"/>
<g opacity="0.4">
<path d="M21 6.4585H28.3333" stroke="#707070" stroke-width="1.5" stroke-linecap="round"/>
<path d="M24.666 10.0104V2.90625" stroke="#707070" stroke-width="1.5" stroke-linecap="round"/>
</g>
<path opacity="0.4" d="M3.56055 24.4769L10.1339 20.2015C11.1872 19.5169 12.7072 19.5944 13.6539 20.3823L14.0939 20.7569C15.1339 21.6223 16.8139 21.6223 17.8539 20.7569L23.4005 16.1456C24.4405 15.2802 26.1205 15.2802 27.1605 16.1456L29.3339 17.954" stroke="#707070" stroke-width="1.5" stroke-linecap="round" stroke-linejoin="round"/>
</svg>
