<svg width="16" height="16" viewBox="0 0 16 16" fill="none" xmlns="http://www.w3.org/2000/svg">
<path d="M15.9267 9.02733C15.9313 9.01 15.9327 8.99267 15.9347 8.97467C15.974 8.65467 16 8.33067 16 7.99933C16 5.80867 15.1133 3.822 13.682 2.376C13.674 2.368 13.668 2.358 13.6593 2.35067C12.21 0.899333 10.208 0 8 0C5.792 0 3.78733 0.900667 2.33867 2.354C2.33467 2.35733 2.332 2.36267 2.328 2.366C0.89 3.81267 0 5.804 0 8C0 8.33067 0.0266667 8.65467 0.0653333 8.97533C0.0673333 8.99333 0.0686667 9.01 0.0733333 9.02733C0.519333 12.482 3.172 15.2487 6.57133 15.8647C6.57667 15.8647 6.58067 15.8693 6.586 15.8693C6.58867 15.8693 6.59133 15.868 6.594 15.868C7.05133 15.9493 7.51933 15.9993 7.99933 15.9993C8.47933 15.9993 8.94733 15.9493 9.40467 15.868C9.40733 15.868 9.41 15.8693 9.41267 15.8693C9.418 15.8693 9.422 15.8647 9.42733 15.8647C12.8267 15.2487 15.4793 12.482 15.9253 9.02733H15.9267ZM15.3173 8.32667L13.2493 6.86867C12.8727 6.60333 12.7107 6.12933 12.8467 5.68867L13.594 3.26867C14.6767 4.54667 15.3333 6.19733 15.3333 7.99933C15.3333 8.11 15.3213 8.21733 15.3167 8.326L15.3173 8.32667ZM10.4873 1.11L8.624 2.464C8.25133 2.73533 7.74933 2.73533 7.37667 2.464L5.51333 1.11C6.29133 0.828 7.12667 0.666667 8.00067 0.666667C8.87467 0.666667 9.71 0.828 10.488 1.11H10.4873ZM2.406 3.26933L3.154 5.68933C3.29 6.12933 3.12867 6.604 2.75133 6.86933L0.683333 8.32733C0.678667 8.218 0.666667 8.11067 0.666667 8.00067C0.666667 6.198 1.32333 4.548 2.406 3.27V3.26933ZM1.862 12H4.33333C4.794 12.0013 5.19933 12.2973 5.34 12.7367L6.088 15.0713C4.33133 14.5953 2.83467 13.4867 1.862 12ZM6.84 15.2327L5.97467 12.5333C5.74467 11.8173 5.086 11.3353 4.334 11.3333H1.476C1.12133 10.642 0.876 9.88733 0.756667 9.09067L3.13533 7.414C3.74867 6.982 4.012 6.20933 3.79 5.49267L2.93067 2.71333C3.478 2.188 4.10733 1.75 4.796 1.414L6.984 3.004C7.288 3.22467 7.64333 3.33467 7.99933 3.33467C8.35533 3.33467 8.71067 3.224 9.01467 3.00333L11.2027 1.414C11.8913 1.75067 12.52 2.188 13.0673 2.71333L12.2087 5.49267C11.9867 6.21 12.25 6.982 12.8633 7.41467L15.242 9.09133C15.1227 9.888 14.8773 10.6427 14.5227 11.334H11.6647C10.9133 11.336 10.2547 11.818 10.024 12.534L9.15933 15.2327C8.78 15.2933 8.39467 15.3333 7.99867 15.3333C7.60267 15.3333 7.21733 15.2933 6.838 15.2327H6.84ZM9.91333 15.072L10.6607 12.7373C10.802 12.298 11.2067 12.0013 11.6673 12.0007H14.1393C13.1673 13.4873 11.6707 14.5967 9.91333 15.072ZM10.2653 9.85667L10.9767 7.66533C11.1333 7.182 10.9627 6.65667 10.552 6.35867L8.68733 5.004C8.27733 4.70533 7.72533 4.70467 7.31333 5.004L5.44867 6.35867C5.038 6.65733 4.86733 7.182 5.024 7.66533L5.73533 9.85733C5.892 10.3407 6.33933 10.6647 6.84733 10.6647H9.152C9.66 10.6647 10.1073 10.34 10.264 9.85667H10.2653ZM6.37067 9.65067L5.65933 7.45867C5.59133 7.25133 5.66533 7.02533 5.84133 6.89733L7.706 5.54267C7.79467 5.47867 7.89733 5.446 8.00067 5.446C8.104 5.446 8.20733 5.478 8.29533 5.54267L10.16 6.89733C10.3367 7.02533 10.41 7.25133 10.342 7.45933L9.63067 9.65067C9.56267 9.85867 9.37067 9.998 9.15267 9.998H6.848C6.63 9.998 6.43867 9.85867 6.37067 9.65067Z" fill="black"/>
</svg>
