<svg width="52" height="53" viewBox="0 0 52 53" fill="none" xmlns="http://www.w3.org/2000/svg">
<rect y="0.5" width="52" height="52" rx="26" fill="#784A33" fill-opacity="0.08"/>
<rect x="8" y="8.5" width="36" height="36" rx="18" fill="#1D1750"/>
<path d="M25.9941 18.1665C29.8796 18.1666 33.083 21.265 33.083 25.0981C33.083 27.0297 32.3799 28.8234 31.2236 30.3433C29.9482 32.0196 28.3759 33.4799 26.6064 34.6265C26.2014 34.8915 25.8361 34.9115 25.3916 34.6265C23.6119 33.4799 22.039 32.0198 20.7744 30.3433C19.6174 28.8234 18.9161 27.0297 18.916 25.0981C18.916 21.2649 22.1195 18.1665 25.9941 18.1665ZM25.9941 22.981C24.7093 22.981 23.6611 24.0398 23.6611 25.314C23.6612 26.598 24.7094 27.6079 25.9941 27.6079C27.2796 27.6078 28.3378 26.5979 28.3379 25.314C28.3379 24.0399 27.2797 22.9811 25.9941 22.981Z" fill="white"/>
</svg>
