<svg width="32" height="32" viewBox="0 0 32 32" fill="none" xmlns="http://www.w3.org/2000/svg">
<rect width="32" height="32" rx="8" fill="#F6F7F9"/>
<path d="M25 9.97998C21.67 9.64998 18.32 9.47998 14.98 9.47998C13 9.47998 11.02 9.57998 9.04 9.77998L7 9.97998" stroke="#788988" stroke-width="1.5" stroke-linecap="round" stroke-linejoin="round"/>
<path opacity="0.34" d="M12.5 8.97L12.72 7.66C12.88 6.71 13 6 14.69 6H17.31C19 6 19.13 6.75 19.28 7.67L19.5 8.97" stroke="#788988" stroke-width="1.5" stroke-linecap="round" stroke-linejoin="round"/>
<path d="M22.8504 13.1401L22.2004 23.2101C22.0904 24.7801 22.0004 26.0001 19.2104 26.0001H12.7904C10.0004 26.0001 9.91039 24.7801 9.80039 23.2101L9.15039 13.1401" stroke="#788988" stroke-width="1.5" stroke-linecap="round" stroke-linejoin="round"/>
<path opacity="0.34" d="M14.33 20.5H17.66M13.5 16.5H18.5" stroke="#788988" stroke-width="1.5" stroke-linecap="round" stroke-linejoin="round"/>
</svg>
