<svg width="48" height="48" viewBox="0 0 48 48" fill="none" xmlns="http://www.w3.org/2000/svg">
<rect width="48" height="48" rx="8" fill="#EDF0FF" fill-opacity="0.5"/>
<path opacity="0.4" d="M32.6211 20.45C31.5711 15.83 27.5411 13.75 24.0011 13.75H23.9911C20.4611 13.75 16.4211 15.82 15.3711 20.44C14.2011 25.6 17.3611 29.97 20.2211 32.72C21.2348 33.7012 22.5903 34.2498 24.0011 34.25C25.3611 34.25 26.7211 33.74 27.7711 32.72C30.6311 29.97 33.7911 25.61 32.6211 20.45Z" fill="#1D1750"/>
<path d="M24.0016 25.4602C24.4152 25.4602 24.8248 25.3787 25.207 25.2204C25.5892 25.0621 25.9364 24.83 26.2289 24.5375C26.5215 24.245 26.7535 23.8978 26.9118 23.5156C27.0701 23.1334 27.1516 22.7238 27.1516 22.3102C27.1516 21.8965 27.0701 21.4869 26.9118 21.1047C26.7535 20.7225 26.5215 20.3753 26.2289 20.0828C25.9364 19.7903 25.5892 19.5582 25.207 19.3999C24.8248 19.2416 24.4152 19.1602 24.0016 19.1602C23.1661 19.1602 22.3649 19.492 21.7742 20.0828C21.1834 20.6735 20.8516 21.4747 20.8516 22.3102C20.8516 23.1456 21.1834 23.9468 21.7742 24.5375C22.3649 25.1283 23.1661 25.4602 24.0016 25.4602Z" fill="#1D1750"/>
</svg>
