<svg width="20" height="20" viewBox="0 0 20 20" fill="none" xmlns="http://www.w3.org/2000/svg">
<path d="M13.5668 18.4166H10.4001C9.93346 18.4166 8.9168 18.2749 8.37513 17.7332L5.85013 15.7832L6.6168 14.7916L9.20013 16.7916C9.40846 16.9916 9.93346 17.1582 10.4001 17.1582H13.5668C14.3168 17.1582 15.1251 16.5582 15.2918 15.8832L17.3085 9.75824C17.4418 9.39158 17.4168 9.05824 17.2418 8.81658C17.0585 8.55824 16.7251 8.40824 16.3168 8.40824H12.9835C12.5501 8.40824 12.1501 8.22491 11.8751 7.90824C11.5918 7.58324 11.4668 7.14991 11.5335 6.69991L11.9501 4.02491C12.0501 3.55824 11.7335 3.03324 11.2835 2.88324C10.8751 2.73324 10.3501 2.94991 10.1668 3.21658L6.75013 8.29991L5.7168 7.60824L9.13346 2.52491C9.65846 1.74158 10.8085 1.36658 11.7085 1.70824C12.7501 2.04991 13.4168 3.19991 13.1835 4.26658L12.7751 6.89158C12.7668 6.94991 12.7668 7.03324 12.8251 7.09991C12.8668 7.14158 12.9251 7.16658 12.9918 7.16658H16.3251C17.1418 7.16658 17.8501 7.50824 18.2668 8.09991C18.6751 8.67491 18.7585 9.43324 18.4918 10.1666L16.5001 16.2332C16.1918 17.4416 14.9085 18.4166 13.5668 18.4166Z" fill="#8E95A2"/>
<path d="M4.48242 17.5001H3.64909C2.10742 17.5001 1.35742 16.7751 1.35742 15.2917V7.12508C1.35742 5.64175 2.10742 4.91675 3.64909 4.91675H4.48242C6.02409 4.91675 6.77409 5.64175 6.77409 7.12508V15.2917C6.77409 16.7751 6.02409 17.5001 4.48242 17.5001ZM3.64909 6.16675C2.74076 6.16675 2.60742 6.38341 2.60742 7.12508V15.2917C2.60742 16.0334 2.74076 16.2501 3.64909 16.2501H4.48242C5.39076 16.2501 5.52409 16.0334 5.52409 15.2917V7.12508C5.52409 6.38341 5.39076 6.16675 4.48242 6.16675H3.64909Z" fill="#8E95A2"/>
</svg>
