<svg width="32" height="32" viewBox="0 0 32 32" fill="none" xmlns="http://www.w3.org/2000/svg">
<rect width="32" height="32" rx="8" fill="#F6F7F7"/>
<path d="M17.2603 7.60022L9.05034 16.2902C8.74034 16.6202 8.44034 17.2702 8.38034 17.7202L8.01034 20.9602C7.88034 22.1302 8.72034 22.9302 9.88034 22.7302L13.1003 22.1802C13.5503 22.1002 14.1803 21.7702 14.4903 21.4302L22.7003 12.7402C24.1203 11.2402 24.7603 9.53022 22.5503 7.44022C20.3503 5.37022 18.6803 6.10022 17.2603 7.60022Z" stroke="#9DABAA" stroke-width="1.5" stroke-miterlimit="10" stroke-linecap="round" stroke-linejoin="round"/>
<path opacity="0.4" d="M15.89 9.0498C16.0996 10.3907 16.7486 11.6239 17.735 12.5561C18.7214 13.4882 19.9894 14.0663 21.34 14.1998M7 25.9998H25" stroke="#9DABAA" stroke-width="1.5" stroke-miterlimit="10" stroke-linecap="round" stroke-linejoin="round"/>
</svg>
