<svg width="21" height="20" viewBox="0 0 21 20" fill="none" xmlns="http://www.w3.org/2000/svg">
<path d="M12.715 18.9577H7.66268C3.0903 18.9577 1.13672 17.0243 1.13672 12.4993V7.49935C1.13672 2.97435 3.0903 1.04102 7.66268 1.04102H9.3468C9.69204 1.04102 9.97834 1.32435 9.97834 1.66602C9.97834 2.00768 9.69204 2.29102 9.3468 2.29102H7.66268C3.78078 2.29102 2.39981 3.65768 2.39981 7.49935V12.4993C2.39981 16.341 3.78078 17.7077 7.66268 17.7077H12.715C16.5969 17.7077 17.9779 16.341 17.9779 12.4993V10.8327C17.9779 10.491 18.2642 10.2077 18.6094 10.2077C18.9547 10.2077 19.241 10.491 19.241 10.8327V12.4993C19.241 17.0243 17.2874 18.9577 12.715 18.9577Z" fill="#292D32"/>
<path d="M7.24146 14.7405C6.7278 14.7405 6.25625 14.5572 5.91101 14.2238C5.4984 13.8155 5.32156 13.2238 5.41419 12.5988L5.77628 10.0905C5.84364 9.60716 6.16362 8.98216 6.50887 8.64049L13.1443 2.07383C14.82 0.415495 16.521 0.415495 18.1967 2.07383C19.1145 2.98216 19.5271 3.90716 19.4429 4.83216C19.3671 5.58216 18.9629 6.31549 18.1967 7.06549L11.5612 13.6322C11.216 13.9738 10.5844 14.2905 10.096 14.3572L7.56144 14.7155C7.45197 14.7405 7.34251 14.7405 7.24146 14.7405ZM14.0369 2.95716L7.40145 9.52383C7.24146 9.68216 7.05621 10.0488 7.02252 10.2655L6.66044 12.7738C6.62676 13.0155 6.67728 13.2155 6.80359 13.3405C6.9299 13.4655 7.13199 13.5155 7.37619 13.4822L9.91079 13.1238C10.1297 13.0905 10.5087 12.9072 10.6602 12.7488L17.2956 6.18216C17.843 5.64049 18.1293 5.15716 18.1714 4.70716C18.2219 4.16549 17.9356 3.59049 17.2956 2.94883C15.9484 1.61549 15.0221 1.99049 14.0369 2.95716Z" fill="#292D32"/>
<path d="M16.7989 8.19124C16.74 8.19124 16.6811 8.18291 16.6305 8.16624C14.4159 7.54957 12.656 5.80791 12.0329 3.61624C11.9403 3.28291 12.1339 2.94124 12.4708 2.84124C12.8076 2.74957 13.1528 2.94124 13.2455 3.27457C13.7507 5.04957 15.1738 6.45791 16.9674 6.95791C17.3042 7.04957 17.4979 7.39957 17.4052 7.73291C17.3294 8.01624 17.0768 8.19124 16.7989 8.19124Z" fill="#292D32"/>
</svg>
