<svg width="43" height="43" viewBox="0 0 43 43" fill="none" xmlns="http://www.w3.org/2000/svg">
<path d="M12.3303 39H30.6703C35.5003 39 37.4253 36.0425 37.6528 32.4375L38.5628 17.9825C38.8078 14.2025 35.7978 11 32.0003 11C30.9328 11 29.9528 10.3875 29.4628 9.4425L28.2028 6.905C27.3978 5.3125 25.2978 4 23.5128 4H19.5053C17.7028 4 15.6028 5.3125 14.7978 6.905L13.5378 9.4425C13.0478 10.3875 12.0678 11 11.0003 11C7.20279 11 4.19279 14.2025 4.43779 17.9825L5.34779 32.4375C5.55779 36.0425 7.50029 39 12.3303 39Z" stroke="#8E95A2" stroke-width="1.5" stroke-linecap="round" stroke-linejoin="round"/>
<path opacity="0.4" d="M18.875 14.5H24.125" stroke="#8E95A2" stroke-width="1.5" stroke-linecap="round" stroke-linejoin="round"/>
<path opacity="0.4" d="M21.5 32C24.6325 32 27.1875 29.445 27.1875 26.3125C27.1875 23.18 24.6325 20.625 21.5 20.625C18.3675 20.625 15.8125 23.18 15.8125 26.3125C15.8125 29.445 18.3675 32 21.5 32Z" stroke="#8E95A2" stroke-width="1.5" stroke-linecap="round" stroke-linejoin="round"/>
</svg>
