<?xml version="1.0" encoding="UTF-8"?>
<svg xmlns="http://www.w3.org/2000/svg" version="1.1" viewBox="0 0 619.96 532.93">
  <defs>
    <style>
      .cls-1, .cls-2 {
        fill: #dba63a;
      }

      .cls-3 {
        fill: #231f20;
      }

      .cls-4 {
        fill: #1d1750;
      }

      .cls-2 {
        fill-rule: evenodd;
      }
    </style>
  </defs>
  <!-- Generator: Adobe Illustrator 28.6.0, SVG Export Plug-In . SVG Version: 1.2.0 Build 709)  -->
  <g>
    <g id="Layer_1">
      <g>
        <path class="cls-4" d="M514.27,206.53c-7.27-5.37-16.05-8.82-25.58-9.61-.36-.03-.71-.07-1.07-.09-5.16-.39-10.24.07-15.3,1.25-6.52,1.52-12.45,4.28-17.88,8.15-3.59,2.56-6.61,5.72-9.61,8.93-4,4.27-8.22,8.34-12.36,12.48-10.02,10.02-20.04,20.03-30.09,30.03-2,1.99-4.12,3.87-6.18,5.79.11.11.22.23.33.34.1.16.16.35.29.48,4.03,4.15,8.06,8.3,12.09,12.45.56.58.92.51,1.49-.06,7.21-7.25,14.45-14.46,21.67-21.68.81-.81,1.62-1.62,2.43-2.42,8.4-8.38,16.83-16.73,25.13-25.22,5.12-5.24,10.83-9.25,18.14-10.73,4.77-.97,9.5-.83,14.14.42,6.29,1.7,11.6,5.08,15.82,10.08,4.14,4.92,6.55,10.6,7.11,16.98.52,5.93-.59,11.6-3.28,16.96-3.27,6.51-8.2,11.36-14.81,14.31-7.62,3.39-15.49,3.64-23.4.87-1.51-.53-2.94-1.3-4.59-2.03.57-.61.95-1.01,1.33-1.4,5.32-5.34,10.66-10.65,15.97-16.01,2.59-2.61,3.38-6.03,1.53-9.02-1.29-2.09-3.24-3.87-5.16-5.46-1.87-1.55-4.16-1.71-6.55-.96-2.04.64-3.37,2.1-4.78,3.51-9.55,9.55-19.09,19.1-28.67,28.61-.17.17-.31.33-.39.48-.33.53-.17.95.29,1.52,1.27,1.55,2.46,3.16,3.75,4.69,4.55,5.36,10.04,9.46,16.41,12.43,4.64,2.16,9.46,3.54,14.52,4.31,5.63.85,11.19.58,16.73-.47.99-.19,1.97-.4,2.93-.65,21.86-5.45,38.05-25.22,38.05-48.77,0-11.43-3.82-21.97-10.24-30.41"/>
        <path class="cls-4" d="M259.9,205.8c-.86.51-1.7,1.04-2.54,1.61-4.66,3.18-8.78,6.92-12.16,11.5-3.04,4.12-5.47,8.51-7.22,13.31-2.41,6.6-3.39,13.39-2.82,20.39.16,1.99.46,3.98.66,5.97.07.72.26,1.14.86,1.28.17.04.37.06.62.06,13.5-.06,59.24-.05,72.74-.05,2,0,3.97.09,5.86-.9,2.22-1.16,3.73-2.89,3.95-5.31.23-2.49.35-5.12-.21-7.51-.81-3.43-3.78-5.28-7.46-5.3-7.54-.03-47.31-.02-54.84-.03-.55,0-1.1-.03-1.93-.05.64-1.68,1.12-3.24,1.81-4.68,3.63-7.54,9.37-12.94,17.16-15.93,6.76-2.59,13.67-2.65,20.59-.36,5.69,1.89,10.49,5.11,14.31,9.67,4.12,4.91,6.43,10.63,6.98,17.04.56,6.52-.81,12.67-4.05,18.32-2.4,4.17-5.64,7.61-9.71,10.3-6.22,4.12-13.09,5.32-20.41,5.24-11.87-.14-23.73-.08-35.6-.07-1.14,0-2.28,0-3.43,0-8.76,0-17.53.01-26.29,0,0-5.11.02-9.49.04-17.88,0-1.46.03-6.3.06-10.74.04-4.38-3.5-7.95-7.88-7.95h-3.4c-4.35,0-7.88,3.53-7.88,7.88,0,7.42,0,14.83,0,22.25,0,1.14,0,2.29,0,3.43-.01,11.87-.07,23.74.07,35.6.09,7.33-1.12,14.19-5.24,20.41-2.69,4.06-6.13,7.31-10.3,9.71-4,2.3-8.25,3.65-12.71,4.05-3.44.31-6.26,2.85-7.03,6.21l-.74,3.22c-1.15,5.03,2.69,9.81,7.85,9.77l4.23-.03c8.94-1.35,17.58-5.11,24.88-11.29.28-.23.55-.46.82-.69,3.93-3.37,7.19-7.29,9.93-11.7,3.54-5.69,5.78-11.83,6.88-18.41.73-4.35.62-8.72.48-13.11-.13-3.85-.12-7.71-.1-11.56,1.14-.04,2.29-.07,3.43-.08,14.17-.04,28.34-.04,42.51-.05,5.86,0,11.72-.11,17.57.08,4.4.15,8.76.25,13.11-.48,6.58-1.1,12.72-3.34,18.41-6.88,4.41-2.74,8.33-6.01,11.7-9.93.23-.27.46-.55.69-.82,6.18-7.3,9.94-15.94,11.29-24.88l.11-14.34c-1.43-10.51-6.18-20.66-14.26-28.75-16.65-16.65-42.08-19.18-61.39-7.58Z"/>
        <path class="cls-4" d="M459.88,297.97c-9.01-2.87-14.48-8.21-20.58-15.43h-49.01c-11.87,0-21.5-9.62-21.5-21.5v-92.46c0-4-3.24-7.25-7.25-7.25h-2.5c-4,0-7.25,3.24-7.25,7.25v99.33c0,17.46,14.16,31.62,31.62,31.62h81.37l-4.9-1.56Z"/>
        <circle class="cls-4" cx="285.25" cy="179.75" r="9.63"/>
        <path class="cls-1" d="M246.97,352.78c-.1-1.07-.56-1.94-1.4-2.62-.47-.39-.9-.78-1.31-1.19-.78-.76-1.7-1.13-2.76-1.13s-1.99.38-2.76,1.13c-.76.76-1.13,1.68-1.13,2.76s.38,1.98,1.13,2.73c.6.6,1.23,1.17,1.89,1.72.72.58,1.54.87,2.47.87,1.24,0,2.25-.47,3.02-1.42.68-.83.96-1.78.84-2.85Z"/>
        <path class="cls-1" d="M264.47,341.21c-3.04-2.33-6.77-3.49-11.19-3.49h-.03c-2.62-.02-4.84-.62-6.69-1.8-1.73-1.12-2.59-2.37-2.59-3.75s.86-2.63,2.59-3.75c1.84-1.18,4.06-1.78,6.66-1.8l.06.03c3.95,0,7.33,1.4,10.12,4.19.64.64,1.4.96,2.3.96s1.68-.32,2.3-.96c.64-.64.96-1.4.96-2.3s-.32-1.66-.96-2.3c-4.01-4.03-8.88-6.07-14.59-6.1h-.12c-4.44,0-8.18,1.16-11.22,3.49-3.04,2.33-4.56,5.17-4.56,8.55s1.52,6.22,4.56,8.55c3.04,2.33,6.78,3.49,11.22,3.49h.03c2.62,0,4.83.6,6.66,1.8,1.72,1.1,2.59,2.35,2.59,3.75s-.86,2.63-2.59,3.75c-1.82,1.18-4.04,1.77-6.66,1.77h-.03c-.93,0-1.84-.09-2.73-.26-.87-.15-1.69.02-2.44.52-.74.5-1.19,1.19-1.37,2.06-.17.89,0,1.71.49,2.44.5.74,1.2,1.19,2.09,1.37,1.24.23,2.51.36,3.81.38h.15c4.42,0,8.15-1.16,11.19-3.49,3.06-2.33,4.59-5.17,4.59-8.55s-1.53-6.22-4.59-8.55Z"/>
        <path class="cls-1" d="M318.89,345.6s0-.03-.03-.03v-.03s-.05-.1-.09-.17c-.04-.04-.07-.08-.09-.12-.02-.02-.05-.06-.09-.12-.04-.06-.07-.11-.09-.15-.02,0-.05-.03-.09-.09-.06-.08-.11-.13-.15-.15l-.09-.09c-.06-.06-.11-.1-.15-.12l-.09-.09c-.08-.06-.13-.1-.15-.12-.02,0-.07-.03-.15-.09-.06-.04-.1-.06-.12-.06-.02-.02-.08-.05-.17-.09-.08-.04-.11-.06-.09-.06-.06-.02-.13-.05-.2-.09-.04-.01-.07-.02-.09-.03-.06-.02-.13-.04-.2-.06l-.12-.03s-.1,0-.17-.03c-.08,0-.13,0-.15-.03h-.38c-7.31,0-14.2,1.61-20.67,4.83l8.92-17.94,4.07,8.26c.41.79,1.04,1.34,1.89,1.63.85.29,1.68.23,2.47-.17.81-.41,1.36-1.04,1.63-1.89.29-.83.24-1.66-.15-2.47l-7.01-14.1c-.6-1.2-1.57-1.8-2.91-1.8s-2.33.6-2.91,1.8l-17.47,35.17c-.37.72-.45,1.46-.23,2.24.19.78.62,1.4,1.28,1.86.56.39,1.18.58,1.86.58.95,0,1.74-.35,2.38-1.05,1.49-1.61,3.68-3.26,6.57-4.94,5.64-3.33,11.72-5.15,18.26-5.46l4.8,9.65c.6,1.2,1.57,1.8,2.91,1.8.5,0,.99-.12,1.45-.35.79-.39,1.34-1.01,1.63-1.86.29-.85.23-1.68-.17-2.47l-5.7-11.51Z"/>
        <path class="cls-1" d="M316.98,343.94s0,0,0,0h0Z"/>
        <path class="cls-1" d="M316.98,343.94s.01,0,.02,0c0,0,0,0,0,0-.01,0-.02,0-.02,0Z"/>
        <path class="cls-1" d="M366.53,337.81h-26.6c-.89,0-1.65.32-2.27.96-.64.62-.96,1.38-.96,2.27v17.53c0,.89.32,1.65.96,2.27.62.64,1.38.96,2.27.96s1.66-.32,2.3-.96c.64-.62.96-1.38.96-2.27v-14.27h23.34c.89,0,1.66-.32,2.3-.96.62-.62.93-1.39.93-2.3s-.31-1.65-.93-2.27c-.64-.64-1.41-.96-2.3-.96Z"/>
        <path class="cls-1" d="M374.87,320.31h-34.94c-.89,0-1.65.32-2.27.96-.64.62-.96,1.38-.96,2.27s.32,1.66.96,2.3c.62.64,1.38.96,2.27.96h34.94c.89,0,1.66-.32,2.3-.96s.96-1.4.96-2.3-.32-1.65-.96-2.27c-.64-.64-1.41-.96-2.3-.96Z"/>
        <path class="cls-1" d="M393.18,320.11c-.89,0-1.66.32-2.3.96-.64.62-.96,1.39-.96,2.3l-.03,35.17c0,.89.32,1.66.96,2.3.62.64,1.39.96,2.3.96s1.66-.32,2.3-.96c.64-.64.96-1.4.96-2.3l.03-35.17c0-.89-.32-1.66-.96-2.3-.62-.64-1.39-.96-2.3-.96Z"/>
        <path class="cls-1" d="M451.29,340.52c1.1-2.05,1.66-4.24,1.66-6.57,0-3.82-1.35-7.07-4.04-9.77-2.69-2.69-5.94-4.04-9.74-4.04h-24.53c-.91,0-1.68.32-2.3.96-.64.64-.96,1.41-.96,2.3v35.14c0,.91.32,1.68.96,2.3.62.64,1.39.96,2.3.96s1.66-.32,2.3-.96c.62-.62.93-1.39.93-2.3v-31.89h21.31c2.02,0,3.73.71,5.15,2.12,1.43,1.43,2.15,3.16,2.15,5.17s-.72,3.71-2.15,5.15c-1.41,1.43-3.13,2.15-5.15,2.15h-13.89c-.89,0-1.66.31-2.3.93-.64.64-.96,1.41-.96,2.3s.32,1.68.96,2.3c.64.64,1.4.96,2.3.96h10.38c2.98,0,5.53,1.06,7.65,3.17,2.11,2.11,3.17,4.66,3.17,7.65,0,.91.32,1.68.96,2.3.62.64,1.39.96,2.3.96s1.66-.32,2.3-.96.93-1.39.93-2.3c0-5.31-2.03-9.7-6.08-13.17,1.86-1.26,3.33-2.88,4.42-4.85Z"/>
        <path class="cls-1" d="M498.12,343.94s0,0,0,0h0Z"/>
        <path class="cls-1" d="M500.03,345.6s0-.03-.03-.03v-.03s-.05-.1-.09-.17c-.04-.04-.07-.08-.09-.12-.02-.02-.05-.06-.09-.12-.04-.06-.07-.11-.09-.15-.02,0-.05-.03-.09-.09-.06-.08-.11-.13-.15-.15l-.09-.09c-.06-.06-.11-.1-.15-.12l-.09-.09c-.08-.06-.13-.1-.15-.12-.02,0-.07-.03-.15-.09-.06-.04-.1-.06-.12-.06-.02-.02-.08-.05-.17-.09-.08-.04-.11-.06-.09-.06-.06-.02-.13-.05-.2-.09-.04-.01-.07-.02-.09-.03-.06-.02-.13-.04-.2-.06l-.12-.03s-.1,0-.17-.03c-.08,0-.13,0-.15-.03h-.38c-7.31,0-14.2,1.61-20.67,4.83l8.92-17.94,4.07,8.26c.41.79,1.04,1.34,1.89,1.63.85.29,1.68.23,2.47-.17.81-.41,1.36-1.04,1.63-1.89.29-.83.24-1.66-.15-2.47l-7.01-14.1c-.6-1.2-1.57-1.8-2.91-1.8s-2.33.6-2.91,1.8l-17.47,35.17c-.37.72-.45,1.46-.23,2.24.19.78.62,1.4,1.28,1.86.56.39,1.18.58,1.86.58.95,0,1.74-.35,2.38-1.05,1.49-1.61,3.68-3.26,6.57-4.94,5.64-3.33,11.72-5.15,18.26-5.46l4.8,9.65c.6,1.2,1.57,1.8,2.91,1.8.5,0,.99-.12,1.45-.35.79-.39,1.34-1.01,1.63-1.86.29-.85.23-1.68-.17-2.47l-5.7-11.51Z"/>
        <path class="cls-1" d="M498.12,343.94s.01,0,.02,0c0,0,0,0,0,0-.01,0-.02,0-.02,0Z"/>
        <path class="cls-2" d="M185.4,193.21c-.07-.19-.17-.34-.32-.49l-3.48-3.37c-.12-.12-.31-.14-.45-.04-.14.1-.2.27-.14.43l5.83,15.02c.07.19.17.34.32.49l3.48,3.37c.12.12.31.14.45.04.14-.1.2-.27.14-.43l-5.83-15.02h0ZM187.91,209.83c-.86-.83-2.28-.58-3.11.27l-61.68,63.69c-.24.25-.46.48-.64.68-14.23,13.9-14.21,37.07.1,50.93,14.09,13.64,36.58,13.29,50.22-.8,9.83-10.15,12.15-24.89,8.47-38.17-8.16-29.47-4.65-39.61,15.37-65.21.41-.53.58-1.14.48-1.8-.09-.67-.48-1.13-.96-1.6l-8.25-7.99h0ZM158.67,288.14c6.49,6.29,6.66,16.65.37,23.14-6.29,6.49-16.65,6.66-23.14.37-6.49-6.29-6.66-16.65-.37-23.14,6.29-6.49,16.65-6.66,23.14-.37h0ZM183.11,202.68c.35.89.15,1.84-.51,2.53l-62.43,64.46c-4.13,4.26-7.36,9.28-9.54,14.8-2.18,5.52-3.28,11.44-3.18,17.38.1,5.94,1.38,11.82,3.74,17.27.05.12.11.25.16.37-3.06-4.02-5.6-8-7.65-11.92-.65,1.37-1.53,2.67-2.64,3.82-5.46,5.63-14.45,5.78-20.08.32-5.63-5.45-5.78-14.45-.32-20.08,4.43-4.57,11.18-5.53,16.58-2.81-2.93-17.69,3.55-33.16,14.15-44.12l61.34-63.34c.34-.35.8-.49,1.27-.4.48.1.84.4,1.02.86l8.09,20.86ZM122.67,238.08c-.25.26-.32.63-.18.97l6.24,14.62c.12.28.35.47.66.53.3.06.59-.04.8-.26,4.83-4.98-3.15,3.25,2.17-2.24.4-.41.51-.99.28-1.51l-6.13-14.37c-.12-.27-.34-.45-.63-.5-.29-.05-.56.03-.77.24l-2.44,2.52h0ZM97.46,307.91c-3.54,3.65-9.37,3.75-13.03.21-3.65-3.54-3.75-9.37-.21-13.03,3.54-3.65,9.37-3.75,13.03-.21,3.65,3.54,3.75,9.37.21,13.03Z"/>
        <ellipse class="cls-4" cx="102" cy="236.3" rx="11.9" ry="2.03"/>
        <ellipse class="cls-4" cx="109.13" cy="222.01" rx="2.11" ry="12.33" transform="translate(-128.62 153.64) rotate(-47.78)"/>
        <path class="cls-3" d="M524.48,216.59l-10.21-10.06,10.21,10.06Z"/>
      </g>
    </g>
  </g>
</svg>