<svg width="64" height="56" viewBox="0 0 64 56" fill="none" xmlns="http://www.w3.org/2000/svg">
<path fill-rule="evenodd" clip-rule="evenodd" d="M5.5212 51.6849C5.44221 51.6604 5.36944 51.6176 5.30825 51.5596L3.78564 50.1323C3.76028 50.1078 3.74353 50.075 3.7381 50.0392C3.73267 50.0033 3.73888 49.9666 3.75574 49.935C3.77259 49.9034 3.79909 49.8787 3.83093 49.8649C3.86278 49.8512 3.8981 49.8492 3.93116 49.8592L10.4067 51.9374C10.4863 51.9625 10.5596 52.006 10.6214 52.0646L12.144 53.4918C12.1694 53.5163 12.1861 53.5492 12.1915 53.585C12.197 53.6208 12.1908 53.6575 12.1739 53.6891C12.1571 53.7208 12.1306 53.7455 12.0987 53.7592C12.0669 53.773 12.0315 53.775 11.9985 53.7649L5.51588 51.6849H5.5212ZM12.5717 52.246C12.1972 51.8962 12.2558 51.2603 12.5876 50.8656L37.3593 21.4886C37.4569 21.3727 37.5456 21.2717 37.6255 21.1819C43.0096 14.4311 52.7273 13.6735 58.9863 19.5395C61.947 22.3137 63.7412 26.2139 63.9741 30.3822C64.2071 34.5506 62.8598 38.6458 60.2285 41.7672C56.2818 46.4436 50.1719 47.9606 44.486 46.7747C31.8704 44.141 27.7303 46.0265 17.6204 55.7253C17.5219 55.8225 17.4051 55.8968 17.2777 55.9436C17.1502 55.9903 17.0149 56.0083 16.8804 55.9965C16.613 55.962 16.3655 55.8296 16.1812 55.6224L12.5717 52.2404V52.246ZM44.4914 36.7317C45.5087 37.6849 46.7713 38.2986 48.1195 38.4954C49.4677 38.6922 50.8411 38.4631 52.0658 37.8372C53.2905 37.2113 54.3117 36.2166 55.0001 34.9789C55.6885 33.7413 56.0133 32.3163 55.9334 30.8841C55.8535 29.4519 55.3725 28.0768 54.5511 26.9327C53.7298 25.7887 52.6051 24.927 51.3192 24.4568C50.0333 23.9865 48.644 23.9287 47.3269 24.2907C46.0099 24.6527 44.8243 25.4182 43.92 26.4905C42.7088 27.9284 42.0887 29.8143 42.1959 31.7339C42.303 33.6534 43.1286 35.4497 44.4914 36.728V36.7317ZM9.41999 50.3568C9.60371 50.4178 9.80034 50.421 9.98572 50.3658C10.1711 50.3106 10.3371 50.1996 10.4635 50.0463L35.535 20.3158C38.0343 17.3518 41.312 15.2363 44.9529 14.2373C48.5938 13.2383 52.434 13.4008 55.9872 14.7042L56.1469 14.764C54.4832 13.6137 52.7309 12.6125 50.9083 11.7712C51.9412 11.1544 52.7763 10.2272 53.3069 9.10781C53.8376 7.98846 54.0396 6.7278 53.8873 5.48683C53.735 4.24586 53.2352 3.08091 52.4519 2.14073C51.6685 1.20055 50.637 0.527828 49.4892 0.208462C48.3414 -0.110905 47.1293 -0.0624168 46.0078 0.347734C44.8863 0.757884 43.9061 1.51108 43.1926 2.51114C42.4791 3.5112 42.0646 4.71274 42.0019 5.9623C41.9393 7.21187 42.2314 8.45275 42.841 9.5265C35.3309 8.83252 29.0399 12.2051 24.7809 17.2556L0.149491 46.4698C0.0831201 46.5462 0.036636 46.6394 0.0145576 46.7404C-0.0075207 46.8413 -0.00444192 46.9466 0.0234948 47.0459C0.0491789 47.1458 0.0987083 47.2371 0.167361 47.3111C0.236014 47.3851 0.321503 47.4394 0.415681 47.4687L9.41999 50.3568ZM22.3746 22.4707C22.4231 22.4119 22.4874 22.3699 22.5589 22.3502C22.6305 22.3305 22.706 22.334 22.7756 22.3603L29.1038 24.6349C29.1625 24.6555 29.2154 24.6912 29.2576 24.739C29.2998 24.7867 29.3299 24.8448 29.3452 24.908C29.3626 24.9709 29.3641 25.0375 29.3495 25.1012C29.3349 25.1649 29.3046 25.2234 29.2618 25.2709C27.3239 27.5698 30.5288 23.7745 28.3904 26.3053C28.3147 26.3973 28.2144 26.4631 28.1027 26.4941C27.9909 26.5252 27.8729 26.52 27.764 26.4793L21.5529 24.244C21.4961 24.2248 21.4449 24.1908 21.4038 24.1452C21.3628 24.0996 21.3333 24.0439 21.3181 23.9831C21.3029 23.9224 21.3024 23.8585 21.3168 23.7976C21.3312 23.7366 21.3599 23.6804 21.4003 23.6342L22.3746 22.4707ZM50.8675 9.01397C51.3766 8.41039 51.7044 7.66125 51.8096 6.86128C51.9147 6.0613 51.7924 5.24644 51.4582 4.51971C51.124 3.79298 50.5929 3.18703 49.9319 2.77849C49.271 2.36995 48.51 2.17717 47.7451 2.22451C46.9803 2.27186 46.2459 2.55722 45.6349 3.04449C45.0239 3.53177 44.5637 4.19909 44.3125 4.96205C44.0612 5.72502 44.0303 6.54938 44.2236 7.33088C44.4168 8.11237 44.8256 8.81592 45.3982 9.35254C46.1663 10.0717 47.1738 10.44 48.1993 10.3765C49.2249 10.313 50.1846 9.82294 50.8675 9.01397Z" fill="#CF9C0A"/>
<path d="M21.8259 13.3237C22.0318 16.2268 21.8259 18.6118 21.3468 18.6492C20.8676 18.6866 20.3264 16.3615 20.1205 13.4584C19.9147 10.5553 20.1205 8.16851 20.5997 8.13297C21.0788 8.09743 21.6201 10.4188 21.8259 13.3237Z" fill="white"/>
<path d="M15.8132 16.3371C17.8912 18.4153 19.302 20.4018 18.9648 20.7778C18.6277 21.1538 16.6703 19.7696 14.594 17.6933C12.5177 15.617 11.1052 13.6323 11.4423 13.2582C11.7795 12.8841 13.7369 14.2645 15.8132 16.3427" fill="white"/>
</svg>
