<svg width="24" height="24" viewBox="0 0 24 24" fill="none" xmlns="http://www.w3.org/2000/svg">
<path d="M12.0196 2.90991C8.7096 2.90991 6.0196 5.59991 6.0196 8.90991V11.7999C6.0196 12.4099 5.7596 13.3399 5.4496 13.8599L4.2996 15.7699C3.5896 16.9499 4.0796 18.2599 5.3796 18.6999C9.6896 20.1399 14.3396 20.1399 18.6496 18.6999C19.8596 18.2999 20.3896 16.8699 19.7296 15.7699L18.5796 13.8599C18.2796 13.3399 18.0196 12.4099 18.0196 11.7999V8.90991C18.0196 5.60991 15.3196 2.90991 12.0196 2.90991Z" stroke="#1D1750" stroke-width="1.5" stroke-miterlimit="10" stroke-linecap="round"/>
<path d="M13.8699 3.20092C12.6606 2.85651 11.3792 2.85651 10.1699 3.20092C10.4599 2.46092 11.1799 1.94092 12.0199 1.94092C12.8599 1.94092 13.5799 2.46092 13.8699 3.20092Z" stroke="#1D1750" stroke-width="1.5" stroke-miterlimit="10" stroke-linecap="round" stroke-linejoin="round"/>
<path opacity="0.4" d="M15.0195 19.0591C15.0195 20.7091 13.6695 22.0591 12.0195 22.0591C11.1995 22.0591 10.4395 21.7191 9.89953 21.1791C9.33769 20.6164 9.02132 19.8542 9.01953 19.0591" stroke="#1D1750" stroke-width="1.5" stroke-miterlimit="10"/>
</svg>
