<svg width="25" height="24" viewBox="0 0 25 24" fill="none" xmlns="http://www.w3.org/2000/svg">
<path d="M7.20117 9.25977L12.5012 12.3298L17.7612 9.27976" stroke="#666666" stroke-width="1.5" stroke-linecap="round" stroke-linejoin="round"/>
<path d="M12.502 17.7698V12.3198" stroke="#666666" stroke-width="1.5" stroke-linecap="round" stroke-linejoin="round"/>
<path d="M11.2603 6.28986L8.06024 8.06986C7.34024 8.46986 6.74023 9.47985 6.74023 10.3099V13.6999C6.74023 14.5299 7.33024 15.5399 8.06024 15.9399L11.2603 17.7199C11.9403 18.0999 13.0602 18.0999 13.7502 17.7199L16.9503 15.9399C17.6703 15.5399 18.2702 14.5299 18.2702 13.6999V10.2999C18.2702 9.46986 17.6803 8.45985 16.9503 8.05985L13.7502 6.27985C13.0602 5.89985 11.9403 5.89986 11.2603 6.28986Z" stroke="#666666" stroke-width="1.5" stroke-linecap="round" stroke-linejoin="round"/>
<path opacity="0.4" d="M22.5 15C22.5 18.87 19.37 22 15.5 22L16.55 20.25" stroke="#666666" stroke-width="1.5" stroke-linecap="round" stroke-linejoin="round"/>
<path opacity="0.4" d="M2.5 9C2.5 5.13 5.63 2 9.5 2L8.45001 3.75" stroke="#666666" stroke-width="1.5" stroke-linecap="round" stroke-linejoin="round"/>
</svg>
