<svg width="24" height="25" viewBox="0 0 24 25" fill="none" xmlns="http://www.w3.org/2000/svg">
<path d="M21.4707 19.5V5.5C21.4707 3.5 20.4707 2.5 18.4707 2.5H14.4707C12.4707 2.5 11.4707 3.5 11.4707 5.5V19.5C11.4707 21.5 12.4707 22.5 14.4707 22.5H18.4707C20.4707 22.5 21.4707 21.5 21.4707 19.5Z" stroke="#CA9A2C" stroke-width="1.5" stroke-linecap="round"/>
<path d="M11.4707 6.5H16.4707" stroke="#CA9A2C" stroke-width="1.5" stroke-linecap="round"/>
<path d="M11.4707 18.5H15.4707" stroke="#CA9A2C" stroke-width="1.5" stroke-linecap="round"/>
<path d="M11.4707 14.45L16.4707 14.5" stroke="#CA9A2C" stroke-width="1.5" stroke-linecap="round"/>
<path d="M11.4707 10.5H14.4707" stroke="#CA9A2C" stroke-width="1.5" stroke-linecap="round"/>
<path d="M5.4893 2.5C3.8593 2.5 2.5293 3.83 2.5293 5.45V18.41C2.5293 18.86 2.7193 19.54 2.9493 19.93L3.7693 21.29C4.7093 22.86 6.2593 22.86 7.1993 21.29L8.0193 19.93C8.2493 19.54 8.4393 18.86 8.4393 18.41V5.45C8.4393 3.83 7.1093 2.5 5.4893 2.5Z" stroke="#CA9A2C" stroke-width="1.5" stroke-linecap="round"/>
<path d="M8.4393 7.5H2.5293" stroke="#CA9A2C" stroke-width="1.5" stroke-linecap="round"/>
</svg>
