<svg width="43" height="43" viewBox="0 0 43 43" fill="none" xmlns="http://www.w3.org/2000/svg">
<path d="M16.25 39H26.75C35.5 39 39 35.5 39 26.75V16.25C39 7.5 35.5 4 26.75 4H16.25C7.5 4 4 7.5 4 16.25V26.75C4 35.5 7.5 39 16.25 39Z" stroke="#8E95A2" stroke-width="1.5" stroke-linecap="round" stroke-linejoin="round"/>
<path opacity="0.4" d="M16.25 18C18.183 18 19.75 16.433 19.75 14.5C19.75 12.567 18.183 11 16.25 11C14.317 11 12.75 12.567 12.75 14.5C12.75 16.433 14.317 18 16.25 18Z" stroke="#8E95A2" stroke-width="1.5" stroke-linecap="round" stroke-linejoin="round"/>
<path opacity="0.4" d="M5.17188 33.6625L13.7994 27.87C15.1819 26.9425 17.1769 27.0475 18.4194 28.115L18.9969 28.6225C20.3619 29.795 22.5669 29.795 23.9319 28.6225L31.2119 22.375C32.5769 21.2025 34.7819 21.2025 36.1469 22.375L38.9994 24.825" stroke="#8E95A2" stroke-width="1.5" stroke-linecap="round" stroke-linejoin="round"/>
</svg>
